<?xml version="1.0" standalone="no"?>
<!DOCTYPE svg PUBLIC "-//W3C//DTD SVG 1.1//EN" "http://www.w3.org/Graphics/SVG/1.1/DTD/svg11.dtd" >
<svg>
<metadata>
Created by FontForge 20090914 at Wed Jan  9 15:02:40 2019
 By www-data
Copyright (c) 2016 by Fontfabric LLC. All rights reserved.
</metadata>
<defs>
<font id="Akrobat-Regular" horiz-adv-x="462" >
  <font-face 
    font-family="Akrobat"
    font-weight="500"
    font-stretch="normal"
    units-per-em="1000"
    panose-1="0 0 6 0 0 0 0 0 0 0"
    ascent="800"
    descent="-200"
    x-height="525"
    cap-height="700"
    bbox="-20 -205.001 773 882"
    underline-thickness="50"
    underline-position="-50"
    unicode-range="U+0020-U+0491"
  />
<missing-glyph horiz-adv-x="500" 
d="M410 800v-1000h-317v1000h317zM333 733h-165v-33h65v-37h-66v-33h166v33h-66v37h66v33zM267 604h-100v-104h166v34h-66v70zM233 570v-36h-33v36h33zM333 473h-166v-33h66v-37h-66v-33h100v70h66v33zM333 413h-33v-66h-133v-34h166v100zM333 291h-100v-56h34v23h33v-47
h-100v80h-33v-113h166v113zM333 118h-166v-113h166v113zM300 85v-47h-100v47h100zM333 -18h-166v-33h70l-70 -47v-33h166v33h-102l70 47h32v33z" />
    <glyph glyph-name=".notdef" horiz-adv-x="500" 
d="M410 800v-1000h-317v1000h317zM333 733h-165v-33h65v-37h-66v-33h166v33h-66v37h66v33zM267 604h-100v-104h166v34h-66v70zM233 570v-36h-33v36h33zM333 473h-166v-33h66v-37h-66v-33h100v70h66v33zM333 413h-33v-66h-133v-34h166v100zM333 291h-100v-56h34v23h33v-47
h-100v80h-33v-113h166v113zM333 118h-166v-113h166v113zM300 85v-47h-100v47h100zM333 -18h-166v-33h70l-70 -47v-33h166v33h-102l70 47h32v33z" />
    <glyph glyph-name="space" unicode=" " horiz-adv-x="229" 
 />
    <glyph glyph-name="exclam" unicode="!" horiz-adv-x="220" 
d="M80 144v556h60v-556h-60zM110 -10c-14 0 -25.333 4.33301 -34 13s-13 20 -13 34s4.33301 25.333 13 34s20 13 34 13s25.333 -4.33301 34 -13s13 -20 13 -34s-4.33301 -25.333 -13 -34s-20 -13 -34 -13z" />
    <glyph glyph-name="quotedbl" unicode="&#x22;" horiz-adv-x="225" 
d="M37 700h67l-46 -208h-42zM137 700h67l-46 -208h-42z" />
    <glyph glyph-name="numbersign" unicode="#" horiz-adv-x="565" 
d="M95 0l43 189h-124l12 49h123l49 213h-124l11 49h124l46 200h54l-46 -200h108l46 200h55l-46 -200h125l-11 -49h-125l-49 -213h126l-12 -49h-125l-43 -189h-55l43 189h-108l-43 -189h-54zM203 238h108l49 213h-108z" />
    <glyph glyph-name="dollar" unicode="$" horiz-adv-x="451" 
d="M415 176c0 -48.667 -15.501 -91.5 -46.501 -128.5s-73.5 -57.167 -127.5 -60.5v-72h-45v74c-49.333 6.66699 -88.666 27 -117.999 61s-44.666 77.333 -45.999 130h62c1.33301 -42.667 13.666 -75.5 36.999 -98.5s54.666 -34.5 93.999 -34.5
c41.333 0 72.833 11.667 94.5 35s32.5 54.666 32.5 93.999c0 29.333 -10.667 55.833 -32 79.5s-47.166 44.167 -77.499 61.5l-91 54c-30.333 18.667 -56.166 42.5 -77.499 71.5s-32 62.167 -32 99.5c0 44.667 14.167 82.667 42.5 114s65.5 49.666 111.5 54.999v74h45v-73
c48.667 -4 87.667 -23 117 -57s45.333 -77.333 48 -130h-62c-2 42.667 -13.667 74.667 -35 96s-49.333 32 -84 32c-37.333 0 -66.666 -10 -87.999 -30s-32 -47 -32 -81c0 -29.333 10.667 -55.666 32 -78.999s47.166 -43.5 77.499 -60.5l91 -53
c30.333 -18.333 56.166 -42.166 77.499 -71.499s32 -63.333 32 -102z" />
    <glyph glyph-name="percent" unicode="%" horiz-adv-x="566" 
d="M112 393c-28.667 0 -52 9.5 -70 28.5s-27 45.5 -27 79.5v99c0 34 9 60.667 27 80s41.333 29 70 29c28 0 51 -9.66699 69 -29s27 -46 27 -80v-99c0 -34 -9 -60.5 -27 -79.5s-41 -28.5 -69 -28.5zM26 0l456 700h58l-456 -700h-58zM112 440c31.333 0 47 20.333 47 61v99
c0 41.333 -15.667 62 -47 62c-32 0 -48 -20.667 -48 -62v-99c0 -40.667 16 -61 48 -61zM456 -9c-28.667 0 -52 9.5 -70 28.5s-27 45.5 -27 79.5v99c0 34 9 60.667 27 80s41.333 29 70 29c28 0 51 -9.66699 69 -29s27 -46 27 -80v-99c0 -34 -9 -60.5 -27 -79.5
s-41 -28.5 -69 -28.5zM456 38c31.333 0 47 20.333 47 61v99c0 41.333 -15.667 62 -47 62c-32 0 -48 -20.667 -48 -62v-99c0 -40.667 16 -61 48 -61z" />
    <glyph glyph-name="ampersand" unicode="&#x26;" horiz-adv-x="572" 
d="M542 0l-73.0029 -0.00292969l-58 84c-50.667 -64.667 -108.667 -97 -174 -97c-46.667 0 -85 15.167 -115 45.5s-45 71.5 -45 123.5c0 44 10.833 83 32.5 117s52.167 69 91.5 105c-52 82 -78 147.667 -78 197c0 40 12.333 73 37 99s59 39 103 39
c46.667 0 82 -14.5 106 -43.5s35.333 -64.167 34 -105.5c-0.666992 -25.333 -7.66699 -50.666 -21 -75.999s-27.166 -45.666 -41.499 -60.999s-34.166 -35 -59.499 -59c34 -51.333 75.333 -109.666 124 -174.999c14.667 30 26.334 59.333 35.001 88h69
c-20 -58.667 -41 -107 -63 -145c35.333 -46.667 67.333 -92 96 -136zM184.997 572.997c0 -32.667 20.667 -83.668 62 -153.001c30.667 28 54 53 70 75s24 45.667 24 71c0 24.667 -7 45.334 -21 62.001s-33 25 -57 25s-43 -7.66699 -57 -23s-21 -34.333 -21 -57z
M242.997 46.9961c45.333 0 88.333 30 129 90l-137 189c-61.333 -58.667 -92 -113 -92 -163c0 -34 9.5 -61.833 28.5 -83.5s42.833 -32.5 71.5 -32.5z" />
    <glyph glyph-name="quotesingle" unicode="'" horiz-adv-x="125" 
d="M37 700h67l-46 -208h-42z" />
    <glyph glyph-name="parenleft" unicode="(" horiz-adv-x="275" 
d="M222 -120c-43.333 2.66699 -78.333 19 -105 49s-40 68 -40 114v615c0 45.333 13.5 83 40.5 113s61.833 46.333 104.5 49v-57c-26 -2 -46.667 -12.5 -62 -31.5s-23 -43.5 -23 -73.5v-615c0 -30 7.66699 -54.5 23 -73.5s36 -29.833 62 -32.5v-57z" />
    <glyph glyph-name="parenright" unicode=")" horiz-adv-x="275" 
d="M53 -120v57c26 2.66699 46.667 13.5 62 32.5s23 43.5 23 73.5v615c0 30 -7.66699 54.5 -23 73.5s-36 29.5 -62 31.5v57c42.667 -2.66699 77.5 -19 104.5 -49s40.5 -67.667 40.5 -113v-615c0 -46 -13.333 -84 -40 -114s-61.667 -46.333 -105 -49z" />
    <glyph glyph-name="asterisk" unicode="*" horiz-adv-x="292" 
d="M93 492l-37 26l53 73l-84 27l13 43l85 -28v89h45v-89l85 27l14 -42l-86 -27l53 -73l-36 -27l-53 73z" />
    <glyph glyph-name="plus" unicode="+" horiz-adv-x="442" 
d="M396 337v-56h-147v-150h-56v150h-147v56h147v150h56v-150h147z" />
    <glyph glyph-name="comma" unicode="," horiz-adv-x="148" 
d="M51 78h67l-46 -208h-42z" />
    <glyph glyph-name="hyphen" unicode="-" horiz-adv-x="332" 
d="M46 229v56h240v-56h-240z" />
    <glyph glyph-name="period" unicode="." horiz-adv-x="182" 
d="M91 -10c-14 0 -25.333 4.33301 -34 13s-13 20 -13 34s4.33301 25.333 13 34s20 13 34 13s25.333 -4.33301 34 -13s13 -20 13 -34s-4.33301 -25.333 -13 -34s-20 -13 -34 -13z" />
    <glyph glyph-name="slash" unicode="/" horiz-adv-x="406" 
d="M337 810h59l-327 -925h-59z" />
    <glyph glyph-name="zero" unicode="0" horiz-adv-x="456" 
d="M228 -10c-50.667 0 -91.667 16.667 -123 50s-47 77.333 -47 132v355c0 54.667 15.5 98.834 46.5 132.501s72.167 50.5 123.5 50.5s92.5 -16.833 123.5 -50.5s46.5 -77.834 46.5 -132.501v-355c0 -54.667 -15.667 -98.667 -47 -132s-72.333 -50 -123 -50zM228 48
c34.667 0 61.8301 10.833 81.4971 32.5s29.5 52.167 29.5 91.5v355c0 39.333 -9.66699 70 -29 92s-46.666 33 -81.999 33s-62.666 -11 -81.999 -33s-29 -52.667 -29 -92v-355c0 -39.333 9.83301 -69.833 29.5 -91.5s46.834 -32.5 81.501 -32.5z" />
    <glyph glyph-name="one" unicode="1" horiz-adv-x="278" 
d="M141 700h60v-695h-60v616l-115 -96v76z" />
    <glyph glyph-name="two" unicode="2" horiz-adv-x="403" 
d="M32 0v50.002c0 44 9.33301 86 28 126s41.167 75.167 67.5 105.5l79 87.5c26.333 28 48.833 57.667 67.5 89s28 62.666 28 93.999c0 30 -9.33301 54.5 -28 73.5s-44 28.5 -76 28.5c-31.333 0 -56 -10.167 -74 -30.5s-27.333 -49.833 -28 -88.5h-60
c3.33301 52.667 19.5 95 48.5 127s66.833 48 113.5 48c49.333 0 89 -15 119 -45s45 -67.667 45 -113c0 -36.667 -9.33301 -72.667 -28 -108s-41.167 -67.333 -67.5 -96l-79 -86c-26.333 -28.667 -48.833 -60.834 -67.5 -96.501s-28 -72.167 -28 -109.5h277v-56h-337z" />
    <glyph glyph-name="three" unicode="3" horiz-adv-x="407" 
d="M185 409c58.667 0 102.5 -15.333 131.5 -46s43.5 -74 43.5 -130v-50c0 -61.333 -15.333 -108.833 -46 -142.5s-72 -50.5 -124 -50.5c-50.667 0 -92 16.667 -124 50s-48 82 -48 146h60c3.33301 -92 40.333 -138 111 -138c74.667 0 112 45 112 135v50
c0 41.333 -10.667 72.333 -32 93s-51 31 -89 31h-63v50l149 238h-224v56h301v-43l-159 -249h1z" />
    <glyph glyph-name="four" unicode="4" horiz-adv-x="407" 
d="M405 245v-58h-85v-187h-60v187h-249v33l162 480h63l-154 -455h178v258h60v-258h85z" />
    <glyph glyph-name="five" unicode="5" horiz-adv-x="400" 
d="M214 467c46.667 0 83.333 -16.5 110 -49.5s40 -79.5 40 -139.5v-70c0 -145.333 -52 -218 -156 -218c-48.667 0 -87.167 15.333 -115.5 46s-43.5 74 -45.5 130h59c2.66699 -78.667 36.667 -118 102 -118c32 0 56 12.333 72 37s24 65.667 24 123v69
c0 45.333 -7.83301 78.833 -23.5 100.5s-40.5 32.5 -74.5 32.5c-50.667 0 -82.667 -25.333 -96 -76h-57v366h291v-56h-232v-217c26.667 26.667 60.667 40 102 40z" />
    <glyph glyph-name="six" unicode="6" horiz-adv-x="430" 
d="M228 460c43.333 0 80.833 -15.999 112.5 -47.999s47.5 -73.333 47.5 -124v-122c0 -53.333 -15.667 -96 -47 -128s-70.333 -48 -117 -48c-47.333 0 -86.833 16 -118.5 48s-47.5 74.667 -47.5 128v373c0 51.333 15.333 92.666 46 123.999s70 47 118 47
c44 0 81.167 -15.333 111.5 -46s47.166 -70.667 50.499 -120h-60c-2 34 -12.667 60.5 -32 79.5s-42.666 28.5 -69.999 28.5c-30.667 0 -55.667 -10 -75 -30s-29 -47.333 -29 -82v-127c29.333 31.333 66 47 110 47zM328 166.001v122.001c0 35.333 -10.5 63.166 -31.5 83.499
s-47.167 30.5 -78.5 30.5c-29.333 0 -53.333 -10.167 -72 -30.5s-28 -48.833 -28 -85.5v-120c0 -37.333 10 -66.333 30 -87s45.333 -31 76 -31c30 0 54.833 10.333 74.5 31s29.5 49.667 29.5 87z" />
    <glyph glyph-name="seven" unicode="7" horiz-adv-x="352" 
d="M0 701h322v-33l-193 -670h-63l186 645h-252v58z" />
    <glyph glyph-name="eight" unicode="8" horiz-adv-x="456" 
d="M314 361c28.667 -13.333 51.167 -34.5 67.5 -63.5s24.5 -62.5 24.5 -100.5v-17c0 -59.333 -15.667 -105.833 -47 -139.5s-75 -50.5 -131 -50.5s-99.667 16.833 -131 50.5s-47 80.167 -47 139.5v17c0 38 8.16699 71.5 24.5 100.5s38.833 50.167 67.5 63.5
c-25.333 14 -45 34.833 -59 62.5s-21 59.167 -21 94.5v12c0 56.667 14.667 100.834 44 132.501s70 47.5 122 47.5s92.667 -15.833 122 -47.5s44 -75.834 44 -132.501v-12c0 -35.333 -7 -66.833 -21 -94.5s-33.667 -48.5 -59 -62.5zM122 530v-12
c0 -40.667 9.33301 -72.334 28 -95.001s44.667 -34 78 -34s59.333 11.333 78 34s28 54.334 28 95.001v12c0 38.667 -9.33301 68.667 -28 90s-44.667 32 -78 32s-59.333 -10.667 -78 -32s-28 -51.333 -28 -90zM346 180v17c0 42 -10.5 74.833 -31.5 98.5
s-49.833 35.5 -86.5 35.5s-65.5 -11.833 -86.5 -35.5s-31.5 -56.5 -31.5 -98.5v-17c0 -41.333 10.333 -73.666 31 -96.999s49.667 -35 87 -35s66.333 11.667 87 35s31 55.666 31 96.999z" />
    <glyph glyph-name="nine" unicode="9" horiz-adv-x="430" 
d="M206 710c47.333 0 86.833 -16.001 118.5 -48.001s47.5 -74.667 47.5 -128v-373c0 -51.333 -15.333 -92.666 -46 -123.999s-70 -47 -118 -47c-44 0 -81.167 15.333 -111.5 46s-47.166 70.667 -50.499 120h60c2 -34 12.667 -60.5 32 -79.5s42.666 -28.5 69.999 -28.5
c30.667 0 55.667 10 75 30s29 47.333 29 82v127c-29.333 -31.333 -66 -47 -110 -47c-43.333 0 -80.833 16 -112.5 48s-47.5 73.333 -47.5 124v122c0 53.333 15.667 96 47 128s70.333 48 117 48zM212 297.999c29.333 0 53.333 10.166 72 30.499s28 48.833 28 85.5v120
c0 37.333 -10 66.333 -30 87s-45.333 31 -76 31c-30 0 -54.833 -10.333 -74.5 -31s-29.5 -49.667 -29.5 -87v-122c0 -35.333 10.5 -63.166 31.5 -83.499s47.167 -30.5 78.5 -30.5z" />
    <glyph glyph-name="colon" unicode=":" horiz-adv-x="175" 
d="M88 337c-14 0 -25.333 4.33301 -34 13s-13 20 -13 34s4.33301 25.333 13 34s20 13 34 13s25.333 -4.33301 34 -13s13 -20 13 -34s-4.33301 -25.333 -13 -34s-20 -13 -34 -13zM88 -10c-14 0 -25.333 4.33301 -34 13s-13 20 -13 34s4.33301 25.333 13 34s20 13 34 13
s25.333 -4.33301 34 -13s13 -20 13 -34s-4.33301 -25.333 -13 -34s-20 -13 -34 -13z" />
    <glyph glyph-name="semicolon" unicode=";" horiz-adv-x="158" 
d="M81 337c-14 0 -25.333 4.33301 -34 13s-13 20 -13 34s4.33301 25.333 13 34s20 13 34 13s25.333 -4.33301 34 -13s13 -20 13 -34s-4.33301 -25.333 -13 -34s-20 -13 -34 -13zM51 78h67l-46 -208h-42z" />
    <glyph glyph-name="less" unicode="&#x3c;" horiz-adv-x="412" 
d="M366 481v-59l-257 -113l257 -113v-59l-320 139v66z" />
    <glyph glyph-name="equal" unicode="=" horiz-adv-x="442" 
d="M46 350v56h350v-56h-350zM46 201v56h350v-56h-350z" />
    <glyph glyph-name="greater" unicode="&#x3e;" horiz-adv-x="412" 
d="M46 481l320 -139v-66l-320 -139v59l257 113l-257 113v59z" />
    <glyph glyph-name="question" unicode="?" horiz-adv-x="374" 
d="M139 144l0.00292969 63.002c0 30.667 5 58.5 15 83.5s22.167 46.167 36.5 63.5l43 51.5c14.333 17 26.5 37 36.5 60s15 48.167 15 75.5c0 34 -9.83301 61.333 -29.5 82s-44.834 31 -75.501 31s-55.834 -10.667 -75.501 -32s-29.5 -51.333 -29.5 -90h-60
c2 54.667 18.167 98 48.5 130s69.166 48 116.499 48c48 0 87.5 -15.833 118.5 -47.5s46.5 -72.167 46.5 -121.5c0 -32.667 -5 -61.834 -15 -87.501s-22.167 -47.334 -36.5 -65.001l-43 -52c-14.333 -17 -26.5 -37 -36.5 -60s-15 -48.5 -15 -76.5v-56h-60zM171.003 -9.99805
c-14 0 -25.333 4.33301 -34 13s-13 20 -13 34s4.33301 25.333 13 34s20 13 34 13s25.333 -4.33301 34 -13s13 -20 13 -34s-4.33301 -25.333 -13 -34s-20 -13 -34 -13z" />
    <glyph glyph-name="at" unicode="@" horiz-adv-x="760" 
d="M389 732c101.333 0 179.668 -27.9971 235.001 -83.9971s83 -138 83 -246v-108c0 -54.667 -12.667 -96.834 -38 -126.501s-58.333 -44.5 -99 -44.5c-48 -1.33301 -81.333 15.667 -100 51c-20.667 -40 -54.334 -60 -101.001 -60c-36.667 0 -66.667 12.833 -90 38.5
s-35 62.167 -35 109.5v108c0 46.667 11.333 82.5 34 107.5s52.667 37.5 90 37.5c42.667 0 74 -15.667 94 -47l6 38h45v-274c0 -37.333 19 -56.333 57 -57c55.333 0 83 39.667 83 119v108c0 91.333 -23 160.5 -69 207.5s-111 70.5 -195 70.5
c-88.667 0 -157.834 -25.5 -207.501 -76.5s-74.5 -122.167 -74.5 -213.5v-131c0 -94.667 24.833 -168.834 74.5 -222.501s116.834 -80.5 201.501 -80.5c88 0 155.667 19.333 203 58l27 -46c-55.333 -42.667 -131.666 -64 -228.999 -64c-102 0 -182.667 31.333 -242 94
s-89 149.667 -89 261v131c0 107.333 29.667 191.166 89 251.499s141.666 90.5 246.999 90.5zM377.002 167.003c25.333 0 45.5 7.83398 60.5 23.501s22.5 39.167 22.5 70.5v109c0 25.333 -7.33301 47.166 -22 65.499s-36 27.5 -64 27.5c-50.667 0 -76 -31 -76 -93v-108
c0 -63.333 26.333 -95 79 -95z" />
    <glyph glyph-name="A" unicode="A" horiz-adv-x="458" 
d="M381 0l-41 164h-222l-41 -164h-66l184 700h68l184 -700h-66zM132 220h194l-72 290c-10 38.667 -18 75.334 -24 110.001h-2c-6 -34.667 -14 -71.334 -24 -110.001z" />
    <glyph glyph-name="B" unicode="B" horiz-adv-x="493" 
d="M336 363c37.333 -8.66699 66.666 -27.832 87.999 -57.499s32 -67.834 32 -114.501c0 -62 -17.5 -109.333 -52.5 -142s-83.833 -49 -146.5 -49h-180v700h164c58.667 0 104.334 -15.833 137.001 -47.5s49 -76.5 49 -134.5c0 -42.667 -8.16699 -77.167 -24.5 -103.5
s-38.5 -43.5 -66.5 -51.5zM241 642.002h-102v-254h104c80.667 0 121 43.333 121 130c0 82.667 -41 124 -123 124zM257 58.002c46 0 80.166 10.833 102.499 32.5s33.5 55.167 33.5 100.5c0 44.667 -13.167 79 -39.5 103s-62.166 36 -107.499 36h-107v-272h118z" />
    <glyph glyph-name="C" unicode="C" horiz-adv-x="480" 
d="M249 -12c-57.333 0 -103.497 18.5 -138.497 55.5s-52.5 88.5 -52.5 154.5v304c0 66 17.167 117.5 51.5 154.5s79.5 55.5 135.5 55.5c57.333 0 103.166 -17.5 137.499 -52.5s53.166 -84.833 56.499 -149.5h-60c-6.66699 97.333 -51.334 146 -134.001 146
c-38.667 0 -69.5 -13 -92.5 -39s-34.5 -64.333 -34.5 -115v-304c0 -50.667 11.833 -89 35.5 -115s55.5 -39 95.5 -39c80.667 0 126 48.667 136 146h60c-5.33301 -64 -25 -113.667 -59 -149s-79.667 -53 -137 -53z" />
    <glyph glyph-name="D" unicode="D" horiz-adv-x="500" 
d="M77 0v700h157c66 0 117.167 -17.833 153.5 -53.5s54.5 -86.167 54.5 -151.5v-291c0 -64 -18.333 -114 -55 -150s-87.667 -54 -153 -54h-157zM139 59h95c46.667 0 82.667 12.5 108 37.5s38 61.833 38 110.5v285c0 49.333 -12.5 86.5 -37.5 111.5s-61.167 37.5 -108.5 37.5
h-95v-582z" />
    <glyph glyph-name="E" unicode="E" horiz-adv-x="454" 
d="M139 57h275v-57h-337v700h326v-57h-264v-259h247v-57h-247v-270z" />
    <glyph glyph-name="F" unicode="F" horiz-adv-x="420" 
d="M393 643h-254v-269h237v-57h-237v-317h-62v700h316v-57z" />
    <glyph glyph-name="G" unicode="G" horiz-adv-x="496" 
d="M252 -10c-58.667 0 -105.667 18.499 -141 55.499s-53 89.167 -53 156.5v297c0 68 16.833 120.167 50.5 156.5s79.834 54.5 138.501 54.5c57.333 0 103.166 -17.5 137.499 -52.5s52.833 -84.167 55.5 -147.5h-60c-2.66699 47.333 -15.5 82.833 -38.5 106.5
s-54.5 35.5 -94.5 35.5c-41.333 0 -73.166 -12.833 -95.499 -38.5s-33.5 -64.167 -33.5 -115.5v-296c0 -50.667 12 -89 36 -115s56.667 -39 98 -39s74.166 12.333 98.499 37s36.5 60.334 36.5 107.001v125h-136v56h195v-181c0 -62.667 -17.833 -112 -53.5 -148
s-82.5 -54 -140.5 -54z" />
    <glyph glyph-name="H" unicode="H" horiz-adv-x="527" 
d="M388 700h62v-700h-62v327h-249v-327h-62v700h62v-315h249v315z" />
    <glyph glyph-name="I" unicode="I" horiz-adv-x="216" 
d="M77 700h62v-700h-62v700z" />
    <glyph glyph-name="J" unicode="J" horiz-adv-x="248" 
d="M0 -81v59c38.667 0 67.167 10.5 85.5 31.5s27.5 56.833 27.5 107.5v583h62v-583c0 -132 -58.333 -198 -175 -198z" />
    <glyph glyph-name="K" unicode="K" horiz-adv-x="480" 
d="M406 0l-217 341l-50 -68v-273h-62v700h62v-334l57 82l179 252h77l-223 -305l251 -395h-74z" />
    <glyph glyph-name="L" unicode="L" horiz-adv-x="403" 
d="M139 59h256v-59h-318v700h62v-641z" />
    <glyph glyph-name="M" unicode="M" horiz-adv-x="652" 
d="M509 700h66v-700h-62v370c0 70 2 136 6 198l-4 1c-6.66699 -19.333 -19.167 -51.666 -37.5 -96.999s-29.833 -74.333 -34.5 -87l-86 -220h-62l-86 220c-4.66699 12.667 -16.167 41.667 -34.5 87s-30.833 77.666 -37.5 96.999l-4 -1c4 -62 6 -128 6 -198v-370h-62v700h66
l125 -302c16 -40 34.667 -92 56 -156h4c21.333 64 40 116 56 156z" />
    <glyph glyph-name="N" unicode="N" horiz-adv-x="540" 
d="M401 700l62.001 0.000976562v-700h-64l-191 411c-25.333 54 -49 110.667 -71 170l-3 -1c3.33301 -88 5 -150.667 5 -188v-392h-62v700h64l189 -408c27.333 -56.667 52.666 -114.334 75.999 -173.001l3 1c-5.33301 90.667 -8 158 -8 202v378z" />
    <glyph glyph-name="O" unicode="O" horiz-adv-x="518" 
d="M259 -13c-62.667 0 -111.834 20.667 -147.501 62s-53.5 97.333 -53.5 168v266c0 70.667 17.833 126.667 53.5 168s84.834 62 147.501 62s111.834 -20.667 147.501 -62s53.5 -97.333 53.5 -168v-266c0 -70.667 -17.833 -126.667 -53.5 -168s-84.834 -62 -147.501 -62z
M259 47c45.333 0 79.666 14.667 102.999 44s35 71.333 35 126v266c0 54.667 -11.667 96.667 -35 126s-57.666 44 -102.999 44s-79.666 -14.667 -102.999 -44s-35 -71.333 -35 -126v-266c0 -54.667 11.667 -96.667 35 -126s57.666 -44 102.999 -44z" />
    <glyph glyph-name="P" unicode="P" horiz-adv-x="480" 
d="M245 700c64 0 113.333 -18.667 148 -56s52 -90.333 52 -159c0 -72 -17.167 -126.667 -51.5 -164s-83.833 -56 -148.5 -56h-106v-265h-62v700h168zM245 324c47.333 0 82.167 13 104.5 39s33.5 66.667 33.5 122c0 104 -46 156 -138 156h-106v-317h106z" />
    <glyph glyph-name="Q" unicode="Q" horiz-adv-x="519" 
d="M461 -23l-40.001 -35l-58 71c-29.333 -17.333 -64 -26 -104 -26c-62.667 0 -111.834 20.667 -147.501 62s-53.5 97.333 -53.5 168v266c0 70.667 17.833 126.667 53.5 168s84.834 62 147.501 62s111.834 -20.667 147.501 -62s53.5 -97.333 53.5 -168v-266
c0 -72.667 -18.667 -129.667 -56 -171zM258.999 47c24.667 0 46.332 4.66699 64.999 14l-71 86l40 35l72 -87c21.333 29.333 32 70 32 122v266c0 54.667 -11.667 96.667 -35 126s-57.666 44 -102.999 44s-79.666 -14.667 -102.999 -44s-35 -71.333 -35 -126v-266
c0 -54.667 11.667 -96.667 35 -126s57.666 -44 102.999 -44z" />
    <glyph glyph-name="R" unicode="R" horiz-adv-x="483" 
d="M383 0l-167 273.001h-77v-273h-62v700h160c64 0 113.333 -17.833 148 -53.5s52 -86.167 52 -151.5c0 -60.667 -13.5 -109.834 -40.5 -147.501s-64.833 -61.167 -113.5 -70.5l172 -277h-72zM139 642.001l0.000976562 -311h97c45.333 0 79.666 13.667 102.999 41
s35 67 35 119c0 100.667 -45.667 151 -137 151h-98z" />
    <glyph glyph-name="S" unicode="S" horiz-adv-x="451" 
d="M227 -13c-58 0 -104.668 17.6641 -140.001 52.9971s-53.666 82 -54.999 140h62c1.33301 -42.667 13.666 -75.5 36.999 -98.5s54.666 -34.5 93.999 -34.5c41.333 0 72.833 11.667 94.5 35s32.5 54.666 32.5 93.999c0 29.333 -10.667 55.833 -32 79.5
s-47.166 44.167 -77.499 61.5l-91 54c-30.333 18.667 -56.166 42.5 -77.499 71.5s-32 62.167 -32 99.5c0 48.667 16.833 89.334 50.5 122.001s77.167 49 130.5 49c54 0 97.333 -17.333 130 -52s50.334 -80 53.001 -136h-62c-2 42.667 -13.667 74.667 -35 96
s-49.333 32 -84 32c-37.333 0 -66.666 -10 -87.999 -30s-32 -47 -32 -81c0 -29.333 10.667 -55.666 32 -78.999s47.166 -43.5 77.499 -60.5l91 -53c30.333 -18.333 56.166 -42.166 77.499 -71.499s32 -63.333 32 -102c0 -51.333 -16.833 -95.666 -50.5 -132.999
s-79.5 -56 -137.5 -56z" />
    <glyph glyph-name="T" unicode="T" horiz-adv-x="406" 
d="M388 700v-58h-154v-642h-62v642h-154v58h370z" />
    <glyph glyph-name="U" unicode="U" horiz-adv-x="514" 
d="M257 -9c-58 0 -104.333 18.667 -139 56s-52 90.666 -52 159.999v493h62v-493c0 -52 11.5 -91 34.5 -117s54.5 -39 94.5 -39s71.5 13 94.5 39s34.5 65 34.5 117v493h62v-493c0 -69.333 -17.333 -122.666 -52 -159.999s-81 -56 -139 -56z" />
    <glyph glyph-name="V" unicode="V" horiz-adv-x="450" 
d="M189 0l-178 700h66l105 -438l20.5 -90l20.5 -87h4l20.5 87l20.5 90l105 438h66l-178 -700h-72z" />
    <glyph glyph-name="W" unicode="W" horiz-adv-x="712" 
d="M636 700l65 -0.000976562l-155 -700h-69l-85 381c-15.333 66.667 -26.666 140 -33.999 220h-4c-7.33301 -79.333 -18.666 -152.666 -33.999 -219.999l-85 -381h-69l-155 700h65l88 -432c21.333 -109.333 32.666 -168.666 33.999 -177.999h4
c1.33301 8 6.33301 34.833 15 80.5l21 107.5l84 411h68l84 -411l21 -107.5c8.66699 -45.667 13.667 -72.5 15 -80.5h4c1.33301 9.33301 12.666 68.666 33.999 177.999z" />
    <glyph glyph-name="X" unicode="X" horiz-adv-x="449" 
d="M430 0h-69l-136 305l-136 -305h-69l169 364l-160 336h69l127 -279l127 279h69l-160 -336z" />
    <glyph glyph-name="Y" unicode="Y" horiz-adv-x="422" 
d="M180 0v251l-175 449h66l100 -270c4 -12 10.5 -30 19.5 -54l20.5 -54l40 109l100 269h66l-175 -449v-251h-62z" />
    <glyph glyph-name="Z" unicode="Z" horiz-adv-x="409" 
d="M93 58h285v-58h-358v47l278 595h-265v58h340v-42z" />
    <glyph glyph-name="bracketleft" unicode="[" horiz-adv-x="275" 
d="M222 764h-85v-828h85v-56h-145v940h145v-56z" />
    <glyph glyph-name="backslash" unicode="\" horiz-adv-x="478" 
d="M105 810l327 -925h-59l-327 925h59z" />
    <glyph glyph-name="bracketright" unicode="]" horiz-adv-x="275" 
d="M53 -64h85v828h-85v56h145v-940h-145v56z" />
    <glyph glyph-name="asciicircum" unicode="^" horiz-adv-x="309" 
d="M294 478h-61l-78 169l-79 -169h-61l106 222h67z" />
    <glyph glyph-name="underscore" unicode="_" horiz-adv-x="406" 
d="M23 -9h360v-55h-360v55z" />
    <glyph glyph-name="a" unicode="a" horiz-adv-x="447" 
d="M220 537c50 0 89.334 -15.668 118.001 -47.001s43 -73.666 43 -126.999v-363h-51l-5 49c-28 -40.667 -68.333 -61 -121 -61c-49.333 0 -89.333 14.333 -120 43s-46 68 -46 118c0 50.667 15.667 89.5 47 116.5s75.666 40.5 132.999 40.5h104v56
c0 78.667 -34.667 118 -104 118c-30 0 -54.5 -8.16699 -73.5 -24.5s-29.5 -38.833 -31.5 -67.5h-59c2 45.333 18 81.5 48 108.5s69.333 40.5 118 40.5zM213.001 45.999c33.333 0 59.833 9.49902 79.5 28.499s29.5 43.5 29.5 73.5v103h-106c-78.667 0 -118 -34.333 -118 -103
c0 -33.333 10.333 -58.666 31 -75.999s48.667 -26 84 -26z" />
    <glyph glyph-name="b" unicode="b" 
d="M246 537c51.333 0 91.3311 -16.832 119.998 -50.499s43 -82.5 43 -146.5v-151c0 -64.667 -14.833 -114.334 -44.5 -149.001s-69.167 -52 -118.5 -52c-53.333 0 -94.666 20.333 -123.999 61l-8 -49h-48v724h58v-246c28.667 39.333 69.334 59 122.001 59zM348.998 189.001
v151.001c0 49.333 -9.5 85.333 -28.5 108s-48.167 34 -87.5 34c-32.667 0 -59 -13.167 -79 -39.5s-30 -60.5 -30 -102.5v-153c0 -46.667 10.167 -82.334 30.5 -107.001s46.5 -37 78.5 -37c77.333 0 116 48.667 116 146z" />
    <glyph glyph-name="c" unicode="c" horiz-adv-x="432" 
d="M221 -10c-51.333 0 -92.166 16.333 -122.499 49s-45.5 78.667 -45.5 138v173c0 59.333 15.167 105.333 45.5 138s71.166 49 122.499 49c52.667 0 94.334 -16.333 125.001 -49s46.667 -78.667 48 -138h-60c-2.66699 86 -40.334 129 -113.001 129c-72 0 -108 -43 -108 -129
v-173c0 -86 36 -129 108 -129c73.333 0 111.333 43 114 129h60c-1.33301 -59.333 -17.5 -105.333 -48.5 -138s-72.833 -49 -125.5 -49z" />
    <glyph glyph-name="d" unicode="d" 
d="M338 724l57.998 -0.000976562v-724h-48l-8 49c-29.333 -40.667 -70.666 -61 -123.999 -61c-49.333 0 -88.833 17.333 -118.5 52s-44.5 84.334 -44.5 149.001v151c0 64 14.333 112.833 43 146.5s68.667 50.5 120 50.5c52.667 0 93.334 -19.667 122.001 -59v246z
M228.998 42.999c32 0 58.167 12.332 78.5 36.999s30.5 60.334 30.5 107.001v153c0 42 -10 76.167 -30 102.5s-46.333 39.5 -79 39.5c-39.333 0 -68.5 -11.333 -87.5 -34s-28.5 -58.667 -28.5 -108v-151c0 -97.333 38.667 -146 116 -146z" />
    <glyph glyph-name="e" unicode="e" horiz-adv-x="450" 
d="M346 161l59.001 -0.000976562c-4 -55.333 -21.833 -97.666 -53.5 -126.999s-74.834 -44 -129.501 -44c-52 0 -93.167 16.333 -123.5 49s-45.5 78.667 -45.5 138v173c0 59.333 15.333 105.333 46 138s72 49 124 49c53.333 0 95.833 -16.333 127.5 -49
s47.5 -78.667 47.5 -138v-116h-285v-57c0 -86 37 -129 111 -129c38 0 66.833 9.16699 86.5 27.5s31.5 46.833 35.5 85.5zM224.001 478.999c-74 0 -111 -43 -111 -129v-61h226v61c0 86 -38.333 129 -115 129z" />
    <glyph glyph-name="f" unicode="f" horiz-adv-x="290" 
d="M251 683c-65.333 0 -98 -37.999 -98 -113.999v-44h115v-54h-115v-471h-59v471h-80v54h80v44c0 53.333 13.667 94.666 41 123.999s66 44 116 44h28v-54h-28z" />
    <glyph glyph-name="g" unicode="g" horiz-adv-x="463" 
d="M348 525h49.001v-561c0 -47.333 -15.167 -85.333 -45.5 -114s-70.833 -43 -121.5 -43c-48.667 0 -88 13.667 -118 41s-46.333 64.333 -49 111h57c2.66699 -31.333 13.5 -55.333 32.5 -72s44.833 -25 77.5 -25c33.333 0 59.666 9 78.999 27s29 43 29 75v102
c-27.333 -33.333 -66 -50 -116 -50c-51.333 0 -92.333 16.333 -123 49s-46 78.667 -46 138v135c0 64 15.167 113.167 45.5 147.5s70.833 51.5 121.5 51.5c51.333 0 91.333 -21.667 120 -65zM232.001 72c70.667 0 106 43.667 106 131v145c0 43.333 -10 76.333 -30 99
s-45.333 34 -76 34c-79.333 0 -119 -47.667 -119 -143v-135c0 -43.333 10.333 -76 31 -98s50 -33 88 -33z" />
    <glyph glyph-name="h" unicode="h" 
d="M261 537c94 0 141 -73.333 141 -220v-317h-59v312c0 60 -7.83301 103.167 -23.5 129.5s-40.167 39.5 -73.5 39.5c-36.667 0 -66 -14.5 -88 -43.5s-33 -69.167 -33 -120.5v-317h-59v720h59v-261c30 52 75.333 78 136 78z" />
    <glyph glyph-name="i" unicode="i" horiz-adv-x="191" 
d="M95 622c-14.667 0 -26.334 4.33301 -35.001 13s-13 20.334 -13 35.001s4.33301 26.334 13 35.001s20.334 13 35.001 13s26.334 -4.33301 35.001 -13s13 -20.334 13 -35.001s-4.33301 -26.334 -13 -35.001s-20.334 -13 -35.001 -13zM66 0v525h59v-525h-59z" />
    <glyph glyph-name="j" unicode="j" horiz-adv-x="233" 
d="M119 621c-14.667 0 -26.334 4.33301 -35.001 13s-13 20.334 -13 35.001s4.33301 26.334 13 35.001s20.334 13 35.001 13s26.334 -4.33301 35.001 -13s13 -20.334 13 -35.001s-4.33301 -26.334 -13 -35.001s-20.334 -13 -35.001 -13zM-20 -192l0.000976562 57
c40 0.666992 68.167 11.334 84.5 32.001s24.5 51.667 24.5 93v535h59v-535c0 -57.333 -13.833 -101.833 -41.5 -133.5s-69.834 -47.834 -126.501 -48.501z" />
    <glyph glyph-name="k" unicode="k" horiz-adv-x="425" 
d="M354 0l-177 267l-52 -57v-210h-59v724h59v-433l199 234h75l-182 -212l208 -313h-71z" />
    <glyph glyph-name="l" unicode="l" horiz-adv-x="197" 
d="M69 0v723h59v-723h-59z" />
    <glyph glyph-name="m" unicode="m" horiz-adv-x="723" 
d="M527 537c42 0 75.165 -17 99.498 -51s36.5 -84.667 36.5 -152v-334h-59v329c0 101.333 -30 152 -90 152c-36 0 -65 -14.5 -87 -43.5s-33 -68.833 -33 -119.5v-318h-59v329c0 101.333 -31 152 -93 152c-35.333 0 -63.666 -14.5 -84.999 -43.5s-32 -68.833 -32 -119.5v-318
h-59v525h49l9 -68c28 53.333 71.667 80 131 80c62.667 0 104.667 -33.667 126 -101c26.667 67.333 75.334 101 146.001 101z" />
    <glyph glyph-name="n" unicode="n" 
d="M261 537c94 0 141.001 -67 141.001 -201v-336h-59v327c0 53.333 -7.66699 92.333 -23 117s-40 37 -74 37c-36.667 0 -66 -14.5 -88 -43.5s-33 -68.833 -33 -119.5v-318h-59v525h49l10 -65c29.333 51.333 74.666 77 135.999 77z" />
    <glyph glyph-name="o" unicode="o" horiz-adv-x="456" 
d="M228 -12c-53.333 0 -95.833 16.5 -127.5 49.5s-47.5 79.833 -47.5 140.5v169c0 60.667 15.833 107.5 47.5 140.5s74.167 49.5 127.5 49.5s95.833 -16.5 127.5 -49.5s47.5 -79.833 47.5 -140.5v-169c0 -60.667 -15.833 -107.5 -47.5 -140.5s-74.167 -49.5 -127.5 -49.5z
M228 46c76.667 0 115 44 115 132v169c0 88 -38.333 132 -115 132s-115 -44 -115 -132v-169c0 -88 38.333 -132 115 -132z" />
    <glyph glyph-name="p" unicode="p" 
d="M246 537c49.333 0 88.835 -17.332 118.502 -51.999s44.5 -84.334 44.5 -149.001v-151c0 -64 -14.333 -112.833 -43 -146.5s-68.667 -50.5 -120 -50.5c-52.667 0 -93.334 19.667 -122.001 59v-227h-58v705h48l8 -49c29.333 40.667 70.666 61 123.999 61zM349.002 185.001
v151.001c0 97.333 -38.667 146 -116 146c-32 0 -58.167 -12.333 -78.5 -37s-30.5 -60.334 -30.5 -107.001v-153c0 -42 10 -76.167 30 -102.5s46.333 -39.5 79 -39.5c39.333 0 68.5 11.333 87.5 34s28.5 58.667 28.5 108z" />
    <glyph glyph-name="q" unicode="q" 
d="M348 525l48.002 -0.000976562v-705h-58v227c-28.667 -39.333 -69.334 -59 -122.001 -59c-51.333 0 -91.333 16.833 -120 50.5s-43 82.5 -43 146.5v151c0 64.667 14.833 114.334 44.5 149.001s69.167 52 118.5 52c53.333 0 94.666 -20.333 123.999 -61zM229.002 42.999
c32.667 0 59 13.166 79 39.499s30 60.5 30 102.5v153c0 46.667 -10.167 82.334 -30.5 107.001s-46.5 37 -78.5 37c-77.333 0 -116 -48.667 -116 -146v-151c0 -49.333 9.5 -85.333 28.5 -108s48.167 -34 87.5 -34z" />
    <glyph glyph-name="r" unicode="r" horiz-adv-x="331" 
d="M262 536c22 0 39.667 -1.66699 53 -5v-64c-20 7.33301 -42 11 -66 11c-38 0 -68.167 -14.333 -90.5 -43s-33.5 -67.667 -33.5 -117v-318h-59v525h49l10 -66v-1c30 52 75.667 78 137 78z" />
    <glyph glyph-name="s" unicode="s" horiz-adv-x="402" 
d="M205 -12c-52 0 -94 15.333 -126 46s-48 71.334 -48 122.001h59c0 -34.667 10.167 -61.667 30.5 -81s48.5 -29 84.5 -29c32.667 0 58 7.83301 76 23.5s27 37.5 27 65.5c0 23.333 -9.33301 42.833 -28 58.5s-41.167 28.334 -67.5 38.001s-52.666 20 -78.999 31
s-48.833 27.667 -67.5 50s-28 50.166 -28 83.499c0 42.667 14.5 76.834 43.5 102.501s67.167 38.5 114.5 38.5c49.333 0 88.833 -14.667 118.5 -44s44.5 -68.333 44.5 -117h-59c0 32.667 -9.16699 58.167 -27.5 76.5s-43.833 27.5 -76.5 27.5
c-30.667 0 -54.667 -7.5 -72 -22.5s-26 -36.167 -26 -63.5c0 -22.667 9.33301 -41.334 28 -56.001s41.167 -26.834 67.5 -36.501s52.666 -20.167 78.999 -31.5s48.833 -28.5 67.5 -51.5s28 -51.5 28 -85.5c0 -43.333 -15 -78.333 -45 -105s-69.333 -40 -118 -40z" />
    <glyph glyph-name="t" unicode="t" horiz-adv-x="297" 
d="M247 51h30v-56h-30c-48 0 -84.833 14.167 -110.5 42.5s-38.5 67.833 -38.5 118.5v314h-80v55h80v121h59v-121h108v-55h-108v-314c0 -70 30 -105 90 -105z" />
    <glyph glyph-name="u" unicode="u" 
d="M337 525h58.999v-525h-49l-10 65c-29.333 -51.333 -74.666 -77 -135.999 -77c-94 0 -141 67 -141 201v336h59v-327c0 -53.333 7.66699 -92.333 23 -117s40 -37 74 -37c36.667 0 66 14.5 88 43.5s33 68.833 33 119.5v318z" />
    <glyph glyph-name="v" unicode="v" horiz-adv-x="378" 
d="M308 525h62.002l-149 -525h-64l-149 525h62l83 -307c3.33301 -12.667 7.16602 -28.167 11.499 -46.5l13.5 -57l9 -37.5h4l9 37.5l13.5 57c4.33301 18.333 8.16602 33.833 11.499 46.5z" />
    <glyph glyph-name="w" unicode="w" horiz-adv-x="608" 
d="M538 525h62l-130 -525h-65l-64 261c-18.667 76 -30.667 135.333 -36 178h-2c-5.33301 -42.667 -17.333 -102 -36 -178l-64 -261h-65l-130 525h62l65 -286c4 -16 8.33301 -35.167 13 -57.5l13.5 -67c4.33301 -22.333 6.83301 -35.833 7.5 -40.5h2
c13.333 71.333 26 133 38 185l63 256h64l63 -256c12 -52 24.667 -113.667 38 -185h2c0.666992 4.66699 3.16699 18.167 7.5 40.5l13.5 67c4.66699 22.333 9 41.5 13 57.5z" />
    <glyph glyph-name="x" unicode="x" horiz-adv-x="380" 
d="M375 0h-69l-116 214l-116 -214h-69l151 262l-144 263h67l111 -206l111 206h67l-143 -263z" />
    <glyph glyph-name="y" unicode="y" horiz-adv-x="387" 
d="M317 525h62l-177 -589c-12.667 -42.667 -28.167 -74.5 -46.5 -95.5s-44.5 -31.5 -78.5 -31.5h-34v58h26c20.667 0 36.167 6.5 46.5 19.5s19.5 32.5 27.5 58.5l33 108l-168 472h63l131 -383z" />
    <glyph glyph-name="z" unicode="z" horiz-adv-x="357" 
d="M87 55h244v-55h-315v48l236 422h-225v55h296v-47z" />
    <glyph glyph-name="braceleft" unicode="{" horiz-adv-x="337" 
d="M194 484c0 -58 -23 -101.333 -69 -130c46 -28.667 69 -72 69 -130v-184c0 -30.667 8.66699 -55.667 26 -75s38.666 -29 63.999 -29v-56c-41.333 0 -76.333 15.167 -105 45.5s-43 68.5 -43 114.5v184c0 28 -7.83301 50.333 -23.5 67s-35.5 27.667 -59.5 33v60
c24 5.33301 43.833 16.333 59.5 33s23.5 39 23.5 67v176c0 46 14.333 84.167 43 114.5s63.667 45.5 105 45.5v-56c-25.333 0 -46.666 -9.66699 -63.999 -29s-26 -44.333 -26 -75v-176z" />
    <glyph glyph-name="bar" unicode="|" horiz-adv-x="195" 
d="M69 795h57v-880h-57v880z" />
    <glyph glyph-name="braceright" unicode="}" horiz-adv-x="337" 
d="M201 477c0 -28 7.83301 -50.333 23.5 -67s35.5 -27.667 59.5 -33v-60c-24 -5.33301 -43.833 -16.333 -59.5 -33s-23.5 -39 -23.5 -67v-176c0 -46 -14.333 -84.167 -43 -114.5s-63.667 -45.5 -105 -45.5v56c25.333 0 46.666 9.66699 63.999 29s26 44.333 26 75v176
c0 58 23 101.333 69 130c-46 28.667 -69 72 -69 130v184c0 30.667 -8.66699 55.667 -26 75s-38.666 29 -63.999 29v56c41.333 0 76.333 -15.167 105 -45.5s43 -68.5 43 -114.5v-184z" />
    <glyph glyph-name="asciitilde" unicode="~" horiz-adv-x="460" 
d="M377 343l32 -42c-25.333 -36 -56 -54 -92 -54c-21.333 0 -51.666 8 -90.999 24s-66.333 24 -81 24c-26 0 -47.333 -12.333 -64 -37l-31 45c26.667 34 57 51 91 51c21.333 0 51.666 -8 90.999 -24s66.333 -24 81 -24c26 0 47.333 12.333 64 37z" />
    <glyph glyph-name="uni0401" unicode="&#x401;" horiz-adv-x="454" 
d="M179 788c-12 0 -21.667 3.5 -29 10.5s-11 16.5 -11 28.5s3.66699 21.5 11 28.5s17 10.5 29 10.5c11.333 0 20.666 -3.5 27.999 -10.5s11 -16.5 11 -28.5s-3.66699 -21.5 -11 -28.5s-16.666 -10.5 -27.999 -10.5zM309 788c-12 0 -21.833 3.5 -29.5 10.5
s-11.5 16.5 -11.5 28.5s3.83301 21.5 11.5 28.5s17.5 10.5 29.5 10.5s21.667 -3.5 29 -10.5s11 -16.5 11 -28.5s-3.66699 -21.5 -11 -28.5s-17 -10.5 -29 -10.5zM139 57h275v-57h-337v700h326v-57h-264v-259h247v-57h-247v-270z" />
    <glyph glyph-name="uni0402" unicode="&#x402;" horiz-adv-x="552" 
d="M358 532c47.333 0 82.668 -17.667 106.001 -53s35 -90.666 35 -165.999v-149c0 -54.667 -13.833 -96.834 -41.5 -126.501s-69.834 -44.834 -126.501 -45.501v57c39.333 0.666992 67.333 10.334 84 29.001s25 47.334 25 86.001v144c0 59.333 -7.66699 102.166 -23 128.499
s-39.333 39.5 -72 39.5c-36.667 0 -66 -14.5 -88 -43.5s-33 -68.833 -33 -119.5v-313h-62v642h-144v58h350v-58h-144v-186c30 50.667 74.667 76 134 76z" />
    <glyph glyph-name="uni0403" unicode="&#x403;" horiz-adv-x="414" 
d="M334 882l-105 -113h-59l92 113h72zM396 700v-58h-257v-642h-62v700h319z" />
    <glyph glyph-name="uni0404" unicode="&#x404;" horiz-adv-x="480" 
d="M385 190h60.0029c-5.33301 -64 -25 -113.667 -59 -149s-79.667 -53 -137 -53s-103.5 18.5 -138.5 55.5s-52.5 88.5 -52.5 154.5v304c0 66 17.167 117.5 51.5 154.5s79.5 55.5 135.5 55.5c57.333 0 103.166 -17.5 137.499 -52.5s53.166 -84.833 56.499 -149.5h-60
c-6.66699 97.333 -51.334 146 -134.001 146c-38.667 0 -69.5 -13 -92.5 -39s-34.5 -64.333 -34.5 -115v-117h214v-58h-214v-129c0 -50.667 11.833 -89 35.5 -115s55.5 -39 95.5 -39c80.667 0 126 48.667 136 146z" />
    <glyph glyph-name="uni0405" unicode="&#x405;" horiz-adv-x="451" 
d="M227 -13c-58 0 -104.668 17.6641 -140.001 52.9971s-53.666 82 -54.999 140h62c1.33301 -42.667 13.666 -75.5 36.999 -98.5s54.666 -34.5 93.999 -34.5c41.333 0 72.833 11.667 94.5 35s32.5 54.666 32.5 93.999c0 29.333 -10.667 55.833 -32 79.5
s-47.166 44.167 -77.499 61.5l-91 54c-30.333 18.667 -56.166 42.5 -77.499 71.5s-32 62.167 -32 99.5c0 48.667 16.833 89.334 50.5 122.001s77.167 49 130.5 49c54 0 97.333 -17.333 130 -52s50.334 -80 53.001 -136h-62c-2 42.667 -13.667 74.667 -35 96
s-49.333 32 -84 32c-37.333 0 -66.666 -10 -87.999 -30s-32 -47 -32 -81c0 -29.333 10.667 -55.666 32 -78.999s47.166 -43.5 77.499 -60.5l91 -53c30.333 -18.333 56.166 -42.166 77.499 -71.499s32 -63.333 32 -102c0 -51.333 -16.833 -95.666 -50.5 -132.999
s-79.5 -56 -137.5 -56z" />
    <glyph glyph-name="uni0406" unicode="&#x406;" horiz-adv-x="216" 
d="M77 700h62v-700h-62v700z" />
    <glyph glyph-name="uni0407" unicode="&#x407;" horiz-adv-x="216" 
d="M45 788c-12 0 -21.667 3.5 -29 10.5s-11 16.5 -11 28.5s3.66699 21.5 11 28.5s17 10.5 29 10.5c11.333 0 20.666 -3.5 27.999 -10.5s11 -16.5 11 -28.5s-3.66699 -21.5 -11 -28.5s-16.666 -10.5 -27.999 -10.5zM175 788c-12 0 -21.833 3.5 -29.5 10.5
s-11.5 16.5 -11.5 28.5s3.83301 21.5 11.5 28.5s17.5 10.5 29.5 10.5s21.667 -3.5 29 -10.5s11 -16.5 11 -28.5s-3.66699 -21.5 -11 -28.5s-17 -10.5 -29 -10.5zM77 700h62v-700h-62v700z" />
    <glyph glyph-name="uni0408" unicode="&#x408;" horiz-adv-x="248" 
d="M0 -81v59c38.667 0 67.167 10.5 85.5 31.5s27.5 56.833 27.5 107.5v583h62v-583c0 -132 -58.333 -198 -175 -198z" />
    <glyph glyph-name="uni0409" unicode="&#x409;" horiz-adv-x="720" 
d="M0 -9v59.001c39.333 0 63 31.333 71 94c10 74.667 19.667 260 29 556h289v-293h103c63.333 0 113.5 -17.833 150.5 -53.5s55.5 -84.834 55.5 -147.501c0 -64 -18.667 -114.333 -56 -151s-87.333 -55 -150 -55h-165v642h-168c-10 -276 -19.333 -445 -28 -507
c-14 -96 -57.667 -144 -131 -144zM389 59.001l103 0.000976562c44 0 78.833 12.667 104.5 38s38.5 61.666 38.5 108.999c0 46 -12.833 81.167 -38.5 105.5s-60.5 36.5 -104.5 36.5h-103v-289z" />
    <glyph glyph-name="uni040A" unicode="&#x40a;" horiz-adv-x="772" 
d="M546 400c62.667 0 112.334 -17.167 149.001 -51.5s55 -81.833 55 -142.5c0 -64 -18.333 -114.333 -55 -151s-86.334 -55 -149.001 -55h-165v341h-242v-341h-62v700h62v-301h242v301h62v-300h103zM546 59c44 0 78.5 12.6689 103.5 38.002s37.5 61.666 37.5 108.999
c0 43.333 -12.5 76.666 -37.5 99.999s-59.5 35 -103.5 35h-103v-282h103z" />
    <glyph glyph-name="uni040B" unicode="&#x40b;" horiz-adv-x="559" 
d="M358 532c47.333 0 82.667 -17.667 106 -53s35 -90.666 35 -165.999v-313h-59v308c0 59.333 -7.66699 102.166 -23 128.499s-39.333 39.5 -72 39.5c-36.667 0 -66 -14.5 -88 -43.5s-33 -68.833 -33 -119.5v-313h-62v642h-144v58h350v-58h-144v-186
c30 50.667 74.667 76 134 76z" />
    <glyph glyph-name="uni040C" unicode="&#x40c;" horiz-adv-x="480" 
d="M341 882l-105 -113h-59l92 113h72zM406 0l-217 341l-50 -68v-273h-62v700h62v-334l57 82l179 252h77l-223 -305l251 -395h-74z" />
    <glyph glyph-name="uni040D" unicode="&#x40d;" horiz-adv-x="539" 
d="M312 769h-59l-105 113h72zM77 0v700h62v-443c0 -54 -1 -98.667 -3 -134l3 -1c12.667 34.667 29 72.667 49 114l204 464h70v-700h-62v461l1 117l-2 1l-37 -90l-217 -489h-68z" />
    <glyph glyph-name="uni040E" unicode="&#x40e;" horiz-adv-x="403" 
d="M205 766c-34.667 0 -61.832 10.167 -81.499 30.5s-30.167 48.833 -31.5 85.5h52c2.66699 -44 23 -66 61 -66s58.333 22 61 66h52c-1.33301 -36.667 -11.833 -65.167 -31.5 -85.5s-46.834 -30.5 -81.501 -30.5zM333.002 700h64l-176 -575
c-27.333 -89.333 -78.333 -134 -153 -134h-24v59h24c45.333 0 77.333 31.333 96 94l23 74l-179 482h66l140 -392z" />
    <glyph glyph-name="uni040F" unicode="&#x40f;" horiz-adv-x="527" 
d="M234 -115v115h-157v700h62v-642h249v642h62v-700h-156v-115h-60z" />
    <glyph glyph-name="uni0410" unicode="&#x410;" horiz-adv-x="458" 
d="M381 0l-41 164h-222l-41 -164h-66l184 700h68l184 -700h-66zM132 220h194l-72 290c-10 38.667 -18 75.334 -24 110.001h-2c-6 -34.667 -14 -71.334 -24 -110.001z" />
    <glyph glyph-name="uni0411" unicode="&#x411;" horiz-adv-x="489" 
d="M254 416c60.667 0 109.334 -18.333 146.001 -55s55 -86.667 55 -150c0 -65.333 -18.333 -116.833 -55 -154.5s-85.334 -56.5 -146.001 -56.5h-177v700h340v-58h-278v-226h115zM254 58c42 0 75.5 13.1689 100.5 39.502s37.5 64.166 37.5 113.499
c0 47.333 -12.5 83.666 -37.5 108.999s-58.5 38 -100.5 38h-115v-300h115z" />
    <glyph glyph-name="uni0412" unicode="&#x412;" horiz-adv-x="493" 
d="M336 363c37.333 -8.66699 66.666 -27.832 87.999 -57.499s32 -67.834 32 -114.501c0 -62 -17.5 -109.333 -52.5 -142s-83.833 -49 -146.5 -49h-180v700h164c58.667 0 104.334 -15.833 137.001 -47.5s49 -76.5 49 -134.5c0 -42.667 -8.16699 -77.167 -24.5 -103.5
s-38.5 -43.5 -66.5 -51.5zM241 642.002h-102v-254h104c80.667 0 121 43.333 121 130c0 82.667 -41 124 -123 124zM257 58.002c46 0 80.166 10.833 102.499 32.5s33.5 55.167 33.5 100.5c0 44.667 -13.167 79 -39.5 103s-62.166 36 -107.499 36h-107v-272h118z" />
    <glyph glyph-name="uni0413" unicode="&#x413;" horiz-adv-x="414" 
d="M396 700v-58h-257v-642h-62v700h319z" />
    <glyph glyph-name="uni0414" unicode="&#x414;" horiz-adv-x="517" 
d="M429 58h60v-173h-60v115h-362v-115h-60v173h38c20.667 20 38 53.167 52 99.5s22 99.833 24 160.5l12 382h296v-642zM367 58v583.999h-175l-12 -340c-4 -107.333 -23.333 -188.666 -58 -243.999h245z" />
    <glyph glyph-name="uni0415" unicode="&#x415;" horiz-adv-x="454" 
d="M139 57h275v-57h-337v700h326v-57h-264v-259h247v-57h-247v-270z" />
    <glyph glyph-name="uni0416" unicode="&#x416;" horiz-adv-x="692" 
d="M618 0l-210 323l-32 -45v-278h-60v278l-32 45l-210 -323h-74l246 377l-230 323h73l227 -328v328h60v-329l65 95l162 234h73l-230 -323l246 -377h-74z" />
    <glyph glyph-name="uni0417" unicode="&#x417;" horiz-adv-x="484" 
d="M310 362c84.667 -23.333 126.999 -81.665 126.999 -174.998c0 -62 -18.167 -110.833 -54.5 -146.5s-83.833 -53.5 -142.5 -53.5c-60 0 -108.167 18.5 -144.5 55.5s-56.166 85.167 -59.499 144.5h63c3.33301 -42.667 17 -76.667 41 -102s56.667 -38 98 -38
s74.5 12.5 99.5 37.5s37.5 59.167 37.5 102.5c0 46 -14 81.5 -42 106.5s-64 37.5 -108 37.5h-57v58h50c42.667 0 77 11.167 103 33.5s39 56.166 39 101.499c0 41.333 -10.833 73.166 -32.5 95.499s-52.167 33.5 -91.5 33.5c-78 0 -120.667 -47.333 -128 -142h-62
c3.33301 63.333 21.5 112.833 54.5 148.5s78.5 53.5 136.5 53.5c56.667 0 101.667 -17 135 -51s50 -81.667 50 -143c0 -82.667 -37.333 -135 -112 -157z" />
    <glyph glyph-name="uni0418" unicode="&#x418;" horiz-adv-x="539" 
d="M77 0v700h62v-443c0 -54 -1 -98.667 -3 -134l3 -1c12.667 34.667 29 72.667 49 114l204 464h70v-700h-62v461l1 117l-2 1l-37 -90l-217 -489h-68z" />
    <glyph glyph-name="uni0419" unicode="&#x419;" horiz-adv-x="539" 
d="M270 766c-34.667 0 -61.8301 10.167 -81.4971 30.5s-30.167 48.833 -31.5 85.5h52c3.33301 -44 23.666 -66 60.999 -66s57.666 22 60.999 66h52c-1.33301 -36.667 -11.833 -65.167 -31.5 -85.5s-46.834 -30.5 -81.501 -30.5zM77.0039 0v700h62v-443
c0 -54 -1 -98.667 -3 -134l3 -1c12.667 34.667 29 72.667 49 114l204 464h70v-700h-62v461l1 117l-2 1l-37 -90l-217 -489h-68z" />
    <glyph glyph-name="uni041A" unicode="&#x41a;" horiz-adv-x="480" 
d="M406 0l-217 341l-50 -68v-273h-62v700h62v-334l57 82l179 252h77l-223 -305l251 -395h-74z" />
    <glyph glyph-name="uni041B" unicode="&#x41b;" horiz-adv-x="483" 
d="M105 700l301 -0.000976562v-700h-62v642h-180c-11.333 -274.667 -21.333 -443.667 -30 -507c-5.33301 -45.333 -19.333 -80.666 -42 -105.999s-53.334 -38 -92.001 -38v59c42.667 0 67.334 31.333 74.001 94c10.667 90 21 275.333 31 556z" />
    <glyph glyph-name="uni041C" unicode="&#x41c;" horiz-adv-x="652" 
d="M509 700h66v-700h-62v370c0 70 2 136 6 198l-4 1c-6.66699 -19.333 -19.167 -51.666 -37.5 -96.999s-29.833 -74.333 -34.5 -87l-86 -220h-62l-86 220c-4.66699 12.667 -16.167 41.667 -34.5 87s-30.833 77.666 -37.5 96.999l-4 -1c4 -62 6 -128 6 -198v-370h-62v700h66
l125 -302c16 -40 34.667 -92 56 -156h4c21.333 64 40 116 56 156z" />
    <glyph glyph-name="uni041D" unicode="&#x41d;" horiz-adv-x="527" 
d="M388 700h62v-700h-62v327h-249v-327h-62v700h62v-315h249v315z" />
    <glyph glyph-name="uni041E" unicode="&#x41e;" horiz-adv-x="518" 
d="M259 -13c-62.667 0 -111.834 20.667 -147.501 62s-53.5 97.333 -53.5 168v266c0 70.667 17.833 126.667 53.5 168s84.834 62 147.501 62s111.834 -20.667 147.501 -62s53.5 -97.333 53.5 -168v-266c0 -70.667 -17.833 -126.667 -53.5 -168s-84.834 -62 -147.501 -62z
M259 47c45.333 0 79.666 14.667 102.999 44s35 71.333 35 126v266c0 54.667 -11.667 96.667 -35 126s-57.666 44 -102.999 44s-79.666 -14.667 -102.999 -44s-35 -71.333 -35 -126v-266c0 -54.667 11.667 -96.667 35 -126s57.666 -44 102.999 -44z" />
    <glyph glyph-name="uni041F" unicode="&#x41f;" horiz-adv-x="527" 
d="M450 700v-700h-62v642h-249v-642h-62v700h373z" />
    <glyph glyph-name="uni0420" unicode="&#x420;" horiz-adv-x="480" 
d="M245 700c64 0 113.333 -18.667 148 -56s52 -90.333 52 -159c0 -72 -17.167 -126.667 -51.5 -164s-83.833 -56 -148.5 -56h-106v-265h-62v700h168zM245 324c47.333 0 82.167 13 104.5 39s33.5 66.667 33.5 122c0 104 -46 156 -138 156h-106v-317h106z" />
    <glyph glyph-name="uni0421" unicode="&#x421;" horiz-adv-x="480" 
d="M249 -12c-57.333 0 -103.497 18.5 -138.497 55.5s-52.5 88.5 -52.5 154.5v304c0 66 17.167 117.5 51.5 154.5s79.5 55.5 135.5 55.5c57.333 0 103.166 -17.5 137.499 -52.5s53.166 -84.833 56.499 -149.5h-60c-6.66699 97.333 -51.334 146 -134.001 146
c-38.667 0 -69.5 -13 -92.5 -39s-34.5 -64.333 -34.5 -115v-304c0 -50.667 11.833 -89 35.5 -115s55.5 -39 95.5 -39c80.667 0 126 48.667 136 146h60c-5.33301 -64 -25 -113.667 -59 -149s-79.667 -53 -137 -53z" />
    <glyph glyph-name="uni0422" unicode="&#x422;" horiz-adv-x="406" 
d="M388 700v-58h-154v-642h-62v642h-154v58h370z" />
    <glyph glyph-name="uni0423" unicode="&#x423;" horiz-adv-x="403" 
d="M333 700h64l-176 -575c-27.333 -89.333 -78.333 -134 -153 -134h-24v59h24c45.333 0 77.333 31.333 96 94l23 74l-179 482h66l140 -392z" />
    <glyph glyph-name="uni0424" unicode="&#x424;" horiz-adv-x="647" 
d="M292 -56v78h-19c-74.667 0 -132.667 21.667 -174 65s-62 105 -62 185v157c0 80 20.667 141.667 62 185s99.333 65 174 65h19v73h62v-73h19c74.667 0 132.834 -21.667 174.501 -65s62.5 -105 62.5 -185v-157c0 -80 -20.833 -141.667 -62.5 -185s-99.834 -65 -174.501 -65
h-19v-78h-62zM273 82h19v537h-19c-115.333 0 -173 -63.333 -173 -190v-157c0 -126.667 57.667 -190 173 -190zM354 82h19c116 0 174 63.333 174 190v157c0 126.667 -58 190 -174 190h-19v-537z" />
    <glyph glyph-name="uni0425" unicode="&#x425;" horiz-adv-x="449" 
d="M430 0h-69l-136 305l-136 -305h-69l169 364l-160 336h69l127 -279l127 279h69l-160 -336z" />
    <glyph glyph-name="uni0426" unicode="&#x426;" horiz-adv-x="535" 
d="M447 -115v115h-370v700h62v-642h244v642h62v-642h62v-173h-60z" />
    <glyph glyph-name="uni0427" unicode="&#x427;" horiz-adv-x="491" 
d="M352 700h62v-700h-62v276c-35.333 -15.333 -69.666 -23 -102.999 -23c-64 0 -114.667 18.333 -152 55s-56 88.667 -56 156v236h62v-236c0 -50 12.833 -87.833 38.5 -113.5s61.5 -38.5 107.5 -38.5c33.333 0 67.666 7.66699 102.999 23v365z" />
    <glyph glyph-name="uni0428" unicode="&#x428;" horiz-adv-x="790" 
d="M77 0v700h62v-642h225v642h62v-642h225v642h62v-700h-636z" />
    <glyph glyph-name="uni0429" unicode="&#x429;" horiz-adv-x="801" 
d="M713 58h60v-173h-60v115h-636v700h62v-642h225v642h62v-642h225v642h62v-642z" />
    <glyph glyph-name="uni042A" unicode="&#x42a;" horiz-adv-x="531" 
d="M137 0v642h-120v58h182v-289h103c63.333 0 113.666 -18 150.999 -54s56 -85.667 56 -149c0 -64.667 -18.667 -115.5 -56 -152.5s-87.666 -55.5 -150.999 -55.5h-165zM199 59h103c44.667 0 79.834 12.833 105.501 38.5s38.5 62.5 38.5 110.5
c0 46 -12.833 81.5 -38.5 106.5s-60.834 37.5 -105.501 37.5h-103v-293z" />
    <glyph glyph-name="uni042B" unicode="&#x42b;" horiz-adv-x="683" 
d="M77 0v700.001h62v-293h100c63.333 0 113.5 -17.833 150.5 -53.5s55.5 -84.834 55.5 -147.501c0 -64 -18.667 -114.333 -56 -151s-87.333 -55 -150 -55h-162zM544 0.000976562v700h62v-700h-62zM139 59.001l100 0.000976562c44 0 78.833 12.667 104.5 38
s38.5 61.666 38.5 108.999c0 46 -12.833 81.167 -38.5 105.5s-60.5 36.5 -104.5 36.5h-100v-289z" />
    <glyph glyph-name="uni042C" unicode="&#x42c;" horiz-adv-x="476" 
d="M77 0v700h62v-292h117c59.333 0 107.166 -18 143.499 -54s54.5 -85 54.5 -147c0 -64 -18.167 -114.5 -54.5 -151.5s-84.166 -55.5 -143.499 -55.5h-179zM139 58h117c40.667 0 73.334 12.833 98.001 38.5s37 62.5 37 110.5c0 46 -12.333 81.333 -37 106
s-57.334 37 -98.001 37h-117v-292z" />
    <glyph glyph-name="uni042D" unicode="&#x42d;" horiz-adv-x="480" 
d="M235 712c56 0 101.17 -18.5 135.503 -55.5s51.5 -88.5 51.5 -154.5v-304c0 -66 -17.5 -117.5 -52.5 -154.5s-81.167 -55.5 -138.5 -55.5s-103 17.667 -137 53s-53.667 85 -59 149h60c10 -97.333 55.333 -146 136 -146c40 0 71.833 13 95.5 39s35.5 64.333 35.5 115v129
h-214v58h214v117c0 50.667 -11.5 89 -34.5 115s-53.833 39 -92.5 39c-82.667 0 -127.334 -48.667 -134.001 -146h-60c3.33301 64.667 22.166 114.5 56.499 149.5s80.166 52.5 137.499 52.5z" />
    <glyph glyph-name="uni042E" unicode="&#x42e;" horiz-adv-x="723" 
d="M465 709c62.667 0 111.667 -21.167 147 -63.5s53 -101.166 53 -176.499v-238c0 -75.333 -17.667 -134.166 -53 -176.499s-84.333 -63.5 -147 -63.5s-111.667 21.167 -147 63.5s-53 101.166 -53 176.499v96h-126v-327h-62v700h62v-315h126v84
c0 75.333 17.667 134.166 53 176.499s84.333 63.5 147 63.5zM602 231v238c0 120 -45.667 180 -137 180s-137 -60 -137 -180v-238c0 -120 45.667 -180 137 -180s137 60 137 180z" />
    <glyph glyph-name="uni042F" unicode="&#x42f;" horiz-adv-x="479" 
d="M28 0l170.001 281.001c-48.667 8.66699 -86.334 31 -113.001 67s-40 82.333 -40 139c0 67.333 17.667 119.666 53 156.999s84 56 146 56h158v-700h-62v277h-74l-166 -277h-72zM242.001 335.001h98v307h-96c-90.667 0 -136 -50.667 -136 -152
c0 -50 11.333 -88.333 34 -115s56 -40 100 -40z" />
    <glyph glyph-name="uni0430" unicode="&#x430;" horiz-adv-x="447" 
d="M220 537c50 0 89.334 -15.668 118.001 -47.001s43 -73.666 43 -126.999v-363h-51l-5 49c-28 -40.667 -68.333 -61 -121 -61c-49.333 0 -89.333 14.333 -120 43s-46 68 -46 118c0 50.667 15.667 89.5 47 116.5s75.666 40.5 132.999 40.5h104v56
c0 78.667 -34.667 118 -104 118c-30 0 -54.5 -8.16699 -73.5 -24.5s-29.5 -38.833 -31.5 -67.5h-59c2 45.333 18 81.5 48 108.5s69.333 40.5 118 40.5zM213.001 45.999c33.333 0 59.833 9.49902 79.5 28.499s29.5 43.5 29.5 73.5v103h-106c-78.667 0 -118 -34.333 -118 -103
c0 -33.333 10.333 -58.666 31 -75.999s48.667 -26 84 -26z" />
    <glyph glyph-name="uni0431" unicode="&#x431;" 
d="M252 499c47.333 0 85.3369 -16.332 114.004 -48.999s43 -78 43 -136v-135c0 -60 -15.5 -106.5 -46.5 -139.5s-72.833 -49.5 -125.5 -49.5s-94.334 16.5 -125.001 49.5s-46 79.5 -46 139.5v294c0 28 4.16699 53.667 12.5 77s18.666 42.166 30.999 56.499
s26.833 26.833 43.5 37.5s31.5 18.5 44.5 23.5s26.5 9.16699 40.5 12.5c24 6 42.667 12.833 56 20.5s25.666 21.167 36.999 40.5l48 -34c-19.333 -41.333 -61.333 -70.333 -126 -87c-18.667 -4.66699 -33.667 -9.33398 -45 -14.001s-24.333 -12.167 -39 -22.5
s-25.667 -24.666 -33 -42.999s-11 -40.833 -11 -67.5v-40c27.333 44 69.666 66 126.999 66zM349.004 179.001l0.000976562 124c0 92 -36.333 138 -109 138c-32.667 0 -59.834 -10.333 -81.501 -31s-32.5 -54 -32.5 -100v-131c0 -87.333 37 -131 111 -131
c74.667 0 112 43.667 112 131z" />
    <glyph glyph-name="uni0432" unicode="&#x432;" horiz-adv-x="423" 
d="M304 278c26 -10 46.832 -27 62.499 -51s23.5 -49.333 23.5 -76c0 -48 -14.667 -85.167 -44 -111.5s-71.666 -39.5 -126.999 -39.5h-153v524h138c50.667 0 90 -12.5 118 -37.5s42 -59.167 42 -102.5c0 -42.667 -20 -78 -60 -106zM123.999 468l0.000976562 -168.001h79
c33.333 0 58.666 7.33301 75.999 22s26 35.334 26 62.001c0 56 -34 84 -102 84h-79zM218 55.999c75.333 0 113 31.667 113 95c0 62 -37.667 93 -113 93h-94v-188h94z" />
    <glyph glyph-name="uni0433" unicode="&#x433;" horiz-adv-x="342" 
d="M327 525v-57h-202v-468h-59v525h261z" />
    <glyph glyph-name="uni0434" unicode="&#x434;" horiz-adv-x="445" 
d="M0 -115l0.000976562 171h38c27.333 51.333 44.666 130.333 51.999 237c5.33301 78 8.33301 155.333 9 232h272v-469h58v-171h-58v115h-313v-115h-58zM103.001 56h209v413h-157c-1.33301 -71.333 -4 -133 -8 -185c-8 -100 -22.667 -176 -44 -228z" />
    <glyph glyph-name="uni0435" unicode="&#x435;" horiz-adv-x="450" 
d="M346 161l59.001 -0.000976562c-4 -55.333 -21.833 -97.666 -53.5 -126.999s-74.834 -44 -129.501 -44c-52 0 -93.167 16.333 -123.5 49s-45.5 78.667 -45.5 138v173c0 59.333 15.333 105.333 46 138s72 49 124 49c53.333 0 95.833 -16.333 127.5 -49
s47.5 -78.667 47.5 -138v-116h-285v-57c0 -86 37 -129 111 -129c38 0 66.833 9.16699 86.5 27.5s31.5 46.833 35.5 85.5zM224.001 478.999c-74 0 -111 -43 -111 -129v-61h226v61c0 86 -38.333 129 -115 129z" />
    <glyph glyph-name="uni0436" unicode="&#x436;" horiz-adv-x="593" 
d="M522 0l-162 250l-35 -45v-205h-57v205l-35 45l-162 -250h-71l197 295l-182 230h74l98 -129l81 -107v236h57v-236l81 107l98 129h74l-182 -230l197 -295h-71z" />
    <glyph glyph-name="uni0437" unicode="&#x437;" horiz-adv-x="404" 
d="M284 275c26 -9.33301 47.5 -25.168 64.5 -47.501s25.5 -48.166 25.5 -77.499c0 -47.333 -16.333 -85.833 -49 -115.5s-74 -44.5 -124 -44.5c-53.333 0 -96 14.667 -128 44s-49 67 -51 113h59c2 -30 13.333 -54 34 -72s49.334 -27 86.001 -27
c34.667 0 62.167 9.16699 82.5 27.5s30.5 44.166 30.5 77.499c0 28 -10.167 50.167 -30.5 66.5s-48.833 24.5 -85.5 24.5h-76v55h72c32 0 57.333 7.33301 76 22s28 36 28 64c0 26.667 -8.83301 48.334 -26.5 65.001s-41.834 25 -72.501 25c-34 0 -59.5 -8.16699 -76.5 -24.5
s-26.833 -42.166 -29.5 -77.499h-59c2.66699 51.333 18 90.666 46 117.999s67.667 41 119 41c44.667 0 82.167 -13.833 112.5 -41.5s45.5 -61.167 45.5 -100.5c0 -56 -24.333 -94.333 -73 -115z" />
    <glyph glyph-name="uni0438" unicode="&#x438;" horiz-adv-x="455" 
d="M66 0l-0.000976562 524.999h59v-300c0 -61.333 -0.666992 -100.666 -2 -117.999l2 -2c12.667 30 24.334 56 35.001 78l168 342h61v-525h-59v283c0 37.333 1.33301 84 4 140l-2 1c-4.66699 -15.333 -18.667 -47 -42 -95l-163 -329h-61z" />
    <glyph glyph-name="uni0439" unicode="&#x439;" horiz-adv-x="455" 
d="M228 607c-34.667 0 -61.8311 10.167 -81.498 30.5s-30.167 48.833 -31.5 85.5h52c3.33301 -44 23.666 -66 60.999 -66c38 0 58.333 22 61 66h52c-1.33301 -36.667 -11.833 -65.167 -31.5 -85.5s-46.834 -30.5 -81.501 -30.5zM66.0029 0l-0.000976562 524.999h59v-300
c0 -61.333 -0.666992 -100.666 -2 -117.999l2 -2c12.667 30 24.334 56 35.001 78l168 342h61v-525h-59v283c0 37.333 1.33301 84 4 140l-2 1c-4.66699 -15.333 -18.667 -47 -42 -95l-163 -329h-61z" />
    <glyph glyph-name="uni043A" unicode="&#x43a;" horiz-adv-x="422" 
d="M349 0l-183 251l-41 -50v-201h-59v525h59v-238l78 95l117 143h76l-191 -228l217 -297h-73z" />
    <glyph glyph-name="uni043B" unicode="&#x43b;" horiz-adv-x="431" 
d="M5 -4v57.002c14.667 0 27.167 4.66699 37.5 14s18.166 23.666 23.499 42.999s9.33301 38.666 12 57.999s5 44.333 7 75c4 68 7.33301 162 10 282h270v-525h-59v469h-153c-1.33301 -58.667 -4.66602 -137 -9.99902 -235c-4.66699 -82 -17.5 -142.167 -38.5 -180.5
s-54.167 -57.5 -99.5 -57.5z" />
    <glyph glyph-name="uni043C" unicode="&#x43c;" horiz-adv-x="538" 
d="M411 525l61 0.000976562v-525h-57v289c0 19.333 0.833008 43.5 2.5 72.5s2.5 47.833 2.5 56.5l-3 1c-18 -52.667 -33.333 -93 -46 -121l-72 -160h-60l-72 160c-12.667 28 -28 68.333 -46 121l-3 -1c0 -8.66699 0.833008 -27.5 2.5 -56.5s2.5 -53.167 2.5 -72.5v-289h-57
v525h61l107 -239l17.5 -41.5c7.66699 -18.333 13.167 -32.166 16.5 -41.499h2c3.33301 9.33301 9 23.166 17 41.499s13.667 32.166 17 41.499z" />
    <glyph glyph-name="uni043D" unicode="&#x43d;" horiz-adv-x="450" 
d="M325 525h59v-525h-59v244h-200v-244h-59v525h59v-225h200v225z" />
    <glyph glyph-name="uni043E" unicode="&#x43e;" horiz-adv-x="456" 
d="M228 -12c-53.333 0 -95.833 16.5 -127.5 49.5s-47.5 79.833 -47.5 140.5v169c0 60.667 15.833 107.5 47.5 140.5s74.167 49.5 127.5 49.5s95.833 -16.5 127.5 -49.5s47.5 -79.833 47.5 -140.5v-169c0 -60.667 -15.833 -107.5 -47.5 -140.5s-74.167 -49.5 -127.5 -49.5z
M228 46c76.667 0 115 44 115 132v169c0 88 -38.333 132 -115 132s-115 -44 -115 -132v-169c0 -88 38.333 -132 115 -132z" />
    <glyph glyph-name="uni043F" unicode="&#x43f;" horiz-adv-x="450" 
d="M384 525v-525h-59v469h-200v-469h-59v525h318z" />
    <glyph glyph-name="uni0440" unicode="&#x440;" 
d="M246 537c49.333 0 88.835 -17.332 118.502 -51.999s44.5 -84.334 44.5 -149.001v-151c0 -64 -14.333 -112.833 -43 -146.5s-68.667 -50.5 -120 -50.5c-52.667 0 -93.334 19.667 -122.001 59v-227h-58v705h48l8 -49c29.333 40.667 70.666 61 123.999 61zM349.002 185.001
v151.001c0 97.333 -38.667 146 -116 146c-32 0 -58.167 -12.333 -78.5 -37s-30.5 -60.334 -30.5 -107.001v-153c0 -42 10 -76.167 30 -102.5s46.333 -39.5 79 -39.5c39.333 0 68.5 11.333 87.5 34s28.5 58.667 28.5 108z" />
    <glyph glyph-name="uni0441" unicode="&#x441;" horiz-adv-x="432" 
d="M221 -10c-51.333 0 -92.166 16.333 -122.499 49s-45.5 78.667 -45.5 138v173c0 59.333 15.167 105.333 45.5 138s71.166 49 122.499 49c52.667 0 94.334 -16.333 125.001 -49s46.667 -78.667 48 -138h-60c-2.66699 86 -40.334 129 -113.001 129c-72 0 -108 -43 -108 -129
v-173c0 -86 36 -129 108 -129c73.333 0 111.333 43 114 129h60c-1.33301 -59.333 -17.5 -105.333 -48.5 -138s-72.833 -49 -125.5 -49z" />
    <glyph glyph-name="uni0442" unicode="&#x442;" horiz-adv-x="343" 
d="M331 525v-55h-130v-470h-59v470h-130v55h319z" />
    <glyph glyph-name="uni0443" unicode="&#x443;" horiz-adv-x="387" 
d="M317 525h62l-177 -589c-12.667 -42.667 -28.167 -74.5 -46.5 -95.5s-44.5 -31.5 -78.5 -31.5h-34v58h26c20.667 0 36.167 6.5 46.5 19.5s19.5 32.5 27.5 58.5l33 108l-168 472h63l131 -383z" />
    <glyph glyph-name="uni0444" unicode="&#x444;" horiz-adv-x="614" 
d="M362 533c56.667 0 104 -18.667 142 -56s57 -88 57 -152v-130c0 -62.667 -19 -112.167 -57 -148.5s-85.333 -54.5 -142 -54.5h-26v-172h-58v172h-26c-56.667 0 -104 18.167 -142 54.5s-57 85.833 -57 148.5v130c0 64 19 114.667 57 152s85.333 56 142 56h26v187h58v-187
h26zM252 50l26 0.000976562v425h-26c-40.667 0 -74 -12.833 -100 -38.5s-39 -62.834 -39 -111.501v-130c0 -46.667 13.167 -82.5 39.5 -107.5s59.5 -37.5 99.5 -37.5zM501 195.001v129.999c0 48.667 -13 85.834 -39 111.501s-59.333 38.5 -100 38.5h-26v-425h26
c40 0 73.167 12.5 99.5 37.5s39.5 60.833 39.5 107.5z" />
    <glyph glyph-name="uni0445" unicode="&#x445;" horiz-adv-x="380" 
d="M375 0h-69l-116 214l-116 -214h-69l151 262l-144 263h67l111 -206l111 206h67l-143 -263z" />
    <glyph glyph-name="uni0446" unicode="&#x446;" horiz-adv-x="461" 
d="M380 -115v115h-314v525h59v-469h196v469h59v-469h58v-171h-58z" />
    <glyph glyph-name="uni0447" unicode="&#x447;" horiz-adv-x="425" 
d="M300 525h59v-525h-59v198c-26.667 -14 -61.667 -21 -105 -21c-46.667 0 -85.334 17.833 -116.001 53.5s-46 86.5 -46 152.5v142h59v-142c0 -50.667 9.83301 -88 29.5 -112s45.834 -36 78.501 -36c42.667 0 76 7.33301 100 22v268z" />
    <glyph glyph-name="uni0448" unicode="&#x448;" horiz-adv-x="686" 
d="M561 525h59v-525h-560v525h59v-469h191v469h60v-469h191v469z" />
    <glyph glyph-name="uni0449" unicode="&#x449;" horiz-adv-x="705" 
d="M626 55h56v-170h-56v115h-560v525h59v-469h191v469h60v-469h191v469h59v-470z" />
    <glyph glyph-name="uni044A" unicode="&#x44a;" horiz-adv-x="459" 
d="M273 340c48 0 88.667 -16.001 122 -48.001s50 -72.333 50 -121c0 -49.333 -16.667 -90.166 -50 -122.499s-74 -48.5 -122 -48.5h-155v470h-106v55h165v-185h96zM273 56.999c32 0 58.667 10.5 80 31.5s32 48.5 32 82.5c0 33.333 -10.667 60.333 -32 81s-48 31 -80 31h-96
v-226h96z" />
    <glyph glyph-name="uni044B" unicode="&#x44b;" horiz-adv-x="598" 
d="M221 332c48 0 88.667 -15.5 122 -46.5s50 -70.5 50 -118.5c0 -48.667 -16.667 -88.667 -50 -120s-74 -47 -122 -47h-155v520h59v-188h96zM473 520h59v-520h-59v520zM221 57c32 0 58.667 10.166 80 30.499s32 46.833 32 79.5s-10.667 58.834 -32 78.501s-48 29.5 -80 29.5
h-96v-218h96z" />
    <glyph glyph-name="uni044C" unicode="&#x44c;" horiz-adv-x="407" 
d="M221 340c48 0 88.667 -16.001 122 -48.001s50 -72.333 50 -121c0 -49.333 -16.667 -90.166 -50 -122.499s-74 -48.5 -122 -48.5h-155v525h59v-185h96zM221 56.999c32 0 58.667 10.5 80 31.5s32 48.5 32 82.5c0 33.333 -10.667 60.333 -32 81s-48 31 -80 31h-96v-226h96z
" />
    <glyph glyph-name="uni044D" unicode="&#x44d;" horiz-adv-x="432" 
d="M211 537c51.333 0 92.166 -16.333 122.499 -49s45.5 -78.667 45.5 -138v-173c0 -59.333 -15.167 -105.333 -45.5 -138s-71.166 -49 -122.499 -49c-52.667 0 -94.5 16.333 -125.5 49s-47.167 78.667 -48.5 138h60c2.66699 -86 40.667 -129 114 -129c72 0 108 43 108 129
v61h-181v55h181v57c0 86 -36 129 -108 129c-72.667 0 -110.334 -43 -113.001 -129h-60c1.33301 59.333 17.333 105.333 48 138s72.334 49 125.001 49z" />
    <glyph glyph-name="uni044E" unicode="&#x44e;" horiz-adv-x="611" 
d="M389 537c52 0 93.167 -16.5 123.5 -49.5s45.5 -79.5 45.5 -139.5v-169c0 -60 -15.167 -106.5 -45.5 -139.5s-71.5 -49.5 -123.5 -49.5s-93.167 16.5 -123.5 49.5s-45.5 79.5 -45.5 139.5v62h-95v-241h-59v525h59v-227h95v50c0 60 15.167 106.5 45.5 139.5
s71.5 49.5 123.5 49.5zM498 179v169c0 87.333 -36.333 131 -109 131s-109 -43.667 -109 -131v-169c0 -87.333 36.333 -131 109 -131s109 43.667 109 131z" />
    <glyph glyph-name="uni044F" unicode="&#x44f;" horiz-adv-x="401" 
d="M196 525l145 0.000976562v-525h-59v192h-80l-120 -192h-70l127 195c-33.333 7.33301 -59.833 25.666 -79.5 54.999s-29.5 65.333 -29.5 108c0 50 15.167 90.333 45.5 121s70.5 46 120.5 46zM282 247.001v221h-86c-33.333 0 -59.333 -9.66699 -78 -29s-28 -46.333 -28 -81
c0 -74 33.333 -111 100 -111h92z" />
    <glyph glyph-name="uni0451" unicode="&#x451;" horiz-adv-x="450" 
d="M161 626c-12 0 -21.667 3.5 -29 10.5s-11 16.5 -11 28.5s3.66699 21.5 11 28.5s17 10.5 29 10.5c11.333 0 20.666 -3.5 27.999 -10.5s11 -16.5 11 -28.5s-3.66699 -21.5 -11 -28.5s-16.666 -10.5 -27.999 -10.5zM279 626c-12 0 -21.833 3.5 -29.5 10.5
s-11.5 16.5 -11.5 28.5s3.83301 21.5 11.5 28.5s17.5 10.5 29.5 10.5s21.667 -3.5 29 -10.5s11 -16.5 11 -28.5s-3.66699 -21.5 -11 -28.5s-17 -10.5 -29 -10.5zM346 161l59.001 -0.000976562c-4 -55.333 -21.833 -97.666 -53.5 -126.999s-74.834 -44 -129.501 -44
c-52 0 -93.167 16.333 -123.5 49s-45.5 78.667 -45.5 138v173c0 59.333 15.333 105.333 46 138s72 49 124 49c53.333 0 95.833 -16.333 127.5 -49s47.5 -78.667 47.5 -138v-116h-285v-57c0 -86 37 -129 111 -129c38 0 66.833 9.16699 86.5 27.5s31.5 46.833 35.5 85.5z
M224.001 478.999c-74 0 -111 -43 -111 -129v-61h226v61c0 86 -38.333 129 -115 129z" />
    <glyph glyph-name="uni0452" unicode="&#x452;" horiz-adv-x="466" 
d="M265 537c94 0 141 -73.333 141 -220v-360c0 -50 -14 -89.333 -42 -118s-70 -43.334 -126 -44.001v57c38.667 0.666992 66.5 9.83398 83.5 27.501s25.5 43.5 25.5 77.5v355c0 60 -7.83301 103.167 -23.5 129.5s-40.167 39.5 -73.5 39.5c-36.667 0 -66 -14.5 -88 -43.5
s-33 -69.167 -33 -120.5v-317h-59v615h-64v46h64v62h59v-62h97v-46h-97v-156c30 52 75.333 78 136 78z" />
    <glyph glyph-name="uni0453" unicode="&#x453;" horiz-adv-x="342" 
d="M284 723l-87 -113h-58l75 113h70zM327 525v-57h-202v-468h-59v525h261z" />
    <glyph glyph-name="uni0454" unicode="&#x454;" horiz-adv-x="432" 
d="M335 177h60c-1.33301 -59.333 -17.5 -105.333 -48.5 -138s-72.833 -49 -125.5 -49c-51.333 0 -92.166 16.333 -122.499 49s-45.5 78.667 -45.5 138v173c0 59.333 15.167 105.333 45.5 138s71.166 49 122.499 49c52.667 0 94.334 -16.333 125.001 -49
s46.667 -78.667 48 -138h-60c-2.66699 86 -40.334 129 -113.001 129c-72 0 -108 -43 -108 -129v-57h181v-55h-181v-61c0 -86 36 -129 108 -129c73.333 0 111.333 43 114 129z" />
    <glyph glyph-name="uni0455" unicode="&#x455;" horiz-adv-x="402" 
d="M205 -12c-52 0 -94 15.333 -126 46s-48 71.334 -48 122.001h59c0 -34.667 10.167 -61.667 30.5 -81s48.5 -29 84.5 -29c32.667 0 58 7.83301 76 23.5s27 37.5 27 65.5c0 23.333 -9.33301 42.833 -28 58.5s-41.167 28.334 -67.5 38.001s-52.666 20 -78.999 31
s-48.833 27.667 -67.5 50s-28 50.166 -28 83.499c0 42.667 14.5 76.834 43.5 102.501s67.167 38.5 114.5 38.5c49.333 0 88.833 -14.667 118.5 -44s44.5 -68.333 44.5 -117h-59c0 32.667 -9.16699 58.167 -27.5 76.5s-43.833 27.5 -76.5 27.5
c-30.667 0 -54.667 -7.5 -72 -22.5s-26 -36.167 -26 -63.5c0 -22.667 9.33301 -41.334 28 -56.001s41.167 -26.834 67.5 -36.501s52.666 -20.167 78.999 -31.5s48.833 -28.5 67.5 -51.5s28 -51.5 28 -85.5c0 -43.333 -15 -78.333 -45 -105s-69.333 -40 -118 -40z" />
    <glyph glyph-name="uni0456" unicode="&#x456;" horiz-adv-x="191" 
d="M95 622c-14.667 0 -26.334 4.33301 -35.001 13s-13 20.334 -13 35.001s4.33301 26.334 13 35.001s20.334 13 35.001 13s26.334 -4.33301 35.001 -13s13 -20.334 13 -35.001s-4.33301 -26.334 -13 -35.001s-20.334 -13 -35.001 -13zM66 0v525h59v-525h-59z" />
    <glyph glyph-name="uni0457" unicode="&#x457;" horiz-adv-x="200" 
d="M44 632c-12 0 -21.5 3.33301 -28.5 10s-10.5 16 -10.5 28s3.5 21.333 10.5 28s16.5 10 28.5 10c11.333 0 20.5 -3.33301 27.5 -10s10.5 -16 10.5 -28s-3.5 -21.333 -10.5 -28s-16.167 -10 -27.5 -10zM156 632c-12 0 -21.667 3.33301 -29 10s-11 16 -11 28
s3.66699 21.333 11 28s17 10 29 10s21.5 -3.33301 28.5 -10s10.5 -16 10.5 -28s-3.5 -21.333 -10.5 -28s-16.5 -10 -28.5 -10zM70 0v525h59v-525h-59z" />
    <glyph glyph-name="uni0458" unicode="&#x458;" horiz-adv-x="233" 
d="M119 621c-14.667 0 -26.334 4.33301 -35.001 13s-13 20.334 -13 35.001s4.33301 26.334 13 35.001s20.334 13 35.001 13s26.334 -4.33301 35.001 -13s13 -20.334 13 -35.001s-4.33301 -26.334 -13 -35.001s-20.334 -13 -35.001 -13zM-20 -192l0.000976562 57
c40 0.666992 68.167 11.334 84.5 32.001s24.5 51.667 24.5 93v535h59v-535c0 -57.333 -13.833 -101.833 -41.5 -133.5s-69.834 -47.834 -126.501 -48.501z" />
    <glyph glyph-name="uni0459" unicode="&#x459;" horiz-adv-x="647" 
d="M5 -4l-0.000976562 57c14.667 0 27.167 4.66699 37.5 14s18.333 23.5 24 42.5s9.66699 38.5 12 58.5s4.5 45 6.5 75c4 68 7.33301 162 10 282h270v-193h96c48 0 88.667 -15.5 122 -46.5s50 -70.5 50 -118.5c0 -48.667 -16.667 -88.667 -50 -120s-74 -47 -122 -47h-155
v469h-153c-1.33301 -58.667 -4.66602 -137 -9.99902 -235c-4 -81.333 -16.5 -141.333 -37.5 -180s-54.5 -58 -100.5 -58zM364.999 57l96 -0.000976562c32 0 58.667 10.167 80 30.5s32 46.833 32 79.5s-10.667 58.834 -32 78.501s-48 29.5 -80 29.5h-96v-218z" />
    <glyph glyph-name="uni045A" unicode="&#x45a;" horiz-adv-x="663" 
d="M478 313c48 0 88.5 -14.166 121.5 -42.499s49.5 -64.5 49.5 -108.5c0 -46.667 -16.5 -85.334 -49.5 -116.001s-73.5 -46 -121.5 -46h-155v256h-198v-256h-59v525h59v-212h198v212h59v-212h96zM478 57.001c32 0 58.499 9.66797 79.499 29.001s31.5 44.666 31.5 75.999
c0 28 -10.667 50.667 -32 68s-47.666 26 -78.999 26h-96v-199h96z" />
    <glyph glyph-name="uni045B" unicode="&#x45b;" horiz-adv-x="460" 
d="M259 537c94 0 141 -73.333 141 -220v-317h-59v312c0 60 -7.83301 103.167 -23.5 129.5s-40.167 39.5 -73.5 39.5c-36.667 0 -66 -14.5 -88 -43.5s-33 -69.167 -33 -120.5v-317h-59v610h-64v46h64v67h59v-67h97v-46h-97v-151c30 52 75.333 78 136 78z" />
    <glyph glyph-name="uni045C" unicode="&#x45c;" horiz-adv-x="422" 
d="M297 723l-87 -113h-58l75 113h70zM349 0l-183 251l-41 -50v-201h-59v525h59v-238l78 95l117 143h76l-191 -228l217 -297h-73z" />
    <glyph glyph-name="uni045D" unicode="&#x45d;" horiz-adv-x="455" 
d="M131 723h70l75 -113h-58zM66 0l-0.000976562 524.999h59v-300c0 -61.333 -0.666992 -100.666 -2 -117.999l2 -2c12.667 30 24.334 56 35.001 78l168 342h61v-525h-59v283c0 37.333 1.33301 84 4 140l-2 1c-4.66699 -15.333 -18.667 -47 -42 -95l-163 -329h-61z" />
    <glyph glyph-name="uni045E" unicode="&#x45e;" horiz-adv-x="387" 
d="M189 607c-34.667 0 -61.8311 10.167 -81.498 30.5s-30.167 48.833 -31.5 85.5h52c3.33301 -44 23.666 -66 60.999 -66c38 0 58.333 22 61 66h52c-1.33301 -36.667 -11.833 -65.167 -31.5 -85.5s-46.834 -30.5 -81.501 -30.5zM317.003 525h62l-177 -589
c-12.667 -42.667 -28.167 -74.5 -46.5 -95.5s-44.5 -31.5 -78.5 -31.5h-34v58h26c20.667 0 36.167 6.5 46.5 19.5s19.5 32.5 27.5 58.5l33 108l-168 472h63l131 -383z" />
    <glyph glyph-name="uni045F" unicode="&#x45f;" horiz-adv-x="450" 
d="M325 525h59v-525h-128v-115h-57v115h-133v525h59v-469h200v469z" />
    <glyph glyph-name="uni0490" unicode="&#x490;" horiz-adv-x="414" 
d="M339 800h57v-158h-257v-642h-62v700h262v100z" />
    <glyph glyph-name="uni0491" unicode="&#x491;" horiz-adv-x="342" 
d="M270 625h57v-157h-202v-468h-59v525h204v100z" />
    <glyph glyph-name=".null" horiz-adv-x="0" 
 />
    <glyph glyph-name="nonmarkingreturn" horiz-adv-x="333" 
 />
    <glyph glyph-name="i.loclTRK" horiz-adv-x="191" 
d="M95 622c-14.667 0 -26.334 4.33301 -35.001 13s-13 20.334 -13 35.001s4.33301 26.334 13 35.001s20.334 13 35.001 13s26.334 -4.33301 35.001 -13s13 -20.334 13 -35.001s-4.33301 -26.334 -13 -35.001s-20.334 -13 -35.001 -13zM66 0v525h59v-525h-59z" />
    <glyph glyph-name="uni0414.loclBGR" horiz-adv-x="468" 
d="M0 -115v173h44l157 642h67l156 -642h44v-173h-60v115h-348v-115h-60zM107 58l255 0.000976562l-82 357l-45 207h-2c-18 -90.667 -32.333 -159.334 -43 -206.001z" />
    <glyph glyph-name="uni041B.loclBGR" horiz-adv-x="450" 
d="M189 700h72l178 -700h-66l-105 438l-20.5 90l-20.5 87h-4l-20.5 -87l-20.5 -90l-105 -438h-66z" />
    <glyph glyph-name="uni0432.loclBGR" horiz-adv-x="456" 
d="M294 388c79.333 -18.667 118.998 -80 118.998 -184c0 -70 -17 -123.167 -51 -159.5s-78.667 -54.5 -134 -54.5c-108.667 0 -163 71.667 -163 215v333c0 60.667 14.333 108.167 43 142.5s68.667 51.5 120 51.5c48.667 0 87.334 -16.167 116.001 -48.5s43 -75.5 43 -129.5
c0 -40 -8.16699 -74.333 -24.5 -103s-39.166 -49.667 -68.499 -63zM220.998 675c-30 0 -53.667 -11.834 -71 -35.501s-26 -57.5 -26 -101.5v-138l67 5c42.667 2.66699 76 17.334 100 44.001s36 61 36 103c0 82 -35.333 123 -106 123zM226.998 47.999
c84 0 126 50.333 126 151c0 56.667 -12.333 96.5 -37 119.5s-61.667 32.833 -111 29.5l-81 -5v-147c0 -52 8.5 -89.667 25.5 -113s42.833 -35 77.5 -35z" />
    <glyph glyph-name="uni0433.loclBGR" horiz-adv-x="398" 
d="M200 -10c-50.667 0 -90.999 12.666 -120.999 37.999s-45 60.333 -45 105c0 31.333 9 58.333 27 81s39.667 40.334 65 53.001s50.666 24.5 75.999 35.5s47 24.167 65 39.5s27 33.333 27 54c0 26.667 -8 47.334 -24 62.001s-38.333 22 -67 22
c-66.667 0 -100 -34.333 -100 -103h-59c0 48 14.667 86.667 44 116s67.666 44 114.999 44c46.667 0 83.667 -12.5 111 -37.5s41 -58.833 41 -101.5c0 -30.667 -9 -57 -27 -79s-39.667 -39.167 -65 -51.5s-50.666 -24 -75.999 -35s-47 -24.5 -65 -40.5s-27 -35 -27 -57
c0 -26.667 9.83301 -47.834 29.5 -63.501s44.834 -23.5 75.501 -23.5c68.667 0 104.667 36 108 108h59c-1.33301 -50 -17.333 -90.167 -48 -120.5s-70.334 -45.5 -119.001 -45.5z" />
    <glyph glyph-name="uni0434.loclBGR" horiz-adv-x="463" 
d="M348 525h49.001v-561c0 -47.333 -15.167 -85.333 -45.5 -114s-70.833 -43 -121.5 -43c-48.667 0 -88 13.667 -118 41s-46.333 64.333 -49 111h57c2.66699 -31.333 13.5 -55.333 32.5 -72s44.833 -25 77.5 -25c33.333 0 59.666 9 78.999 27s29 43 29 75v102
c-27.333 -33.333 -66 -50 -116 -50c-51.333 0 -92.333 16.333 -123 49s-46 78.667 -46 138v135c0 64 15.167 113.167 45.5 147.5s70.833 51.5 121.5 51.5c51.333 0 91.333 -21.667 120 -65zM232.001 72c70.667 0 106 43.667 106 131v145c0 43.333 -10 76.333 -30 99
s-45.333 34 -76 34c-79.333 0 -119 -47.667 -119 -143v-135c0 -43.333 10.333 -76 31 -98s50 -33 88 -33z" />
    <glyph glyph-name="uni0436.loclBGR" horiz-adv-x="593" 
d="M522 0l-161 253l-36 -45v-208h-57v208l-36 46l-161 -254h-71l195 300l-180 225h74l179 -232v429h57v-429l179 232h74l-180 -225l195 -300h-71z" />
    <glyph glyph-name="uni0437.loclBGR" horiz-adv-x="422" 
d="M273 190c71.333 -24 107.002 -85.332 107.002 -183.999c0 -61.333 -15.667 -109.5 -47 -144.5s-75.333 -52.5 -132 -52.5c-108 0 -165 62 -171 186h59c6 -85.333 43 -128 111 -128c38.667 0 68.334 12.5 89.001 37.5s31 59.833 31 104.5
c0 47.333 -11.833 84.166 -35.5 110.499s-56.834 39.5 -99.501 39.5h-56v56h52c39.333 0 70 11.833 92 35.5s33 57.5 33 101.5c0 39.333 -9.33301 70.333 -28 93s-44.334 34 -77.001 34c-64 0 -99 -42.667 -105 -128h-59c2.66699 61.333 18.167 107.666 46.5 138.999
s67.833 47 118.5 47c51.333 0 91.166 -16 119.499 -48s42.5 -76.667 42.5 -134c0 -43.333 -6.83301 -78.166 -20.5 -104.499s-37.167 -46.5 -70.5 -60.5z" />
    <glyph glyph-name="uni0438.loclBGR" 
d="M337 525h58.999v-525h-49l-10 65c-29.333 -51.333 -74.666 -77 -135.999 -77c-94 0 -141 67 -141 201v336h59v-327c0 -53.333 7.66699 -92.333 23 -117s40 -37 74 -37c36.667 0 66 14.5 88 43.5s33 68.833 33 119.5v318z" />
    <glyph glyph-name="uni0439.loclBGR" 
d="M228 607c-34.667 0 -61.8311 10.167 -81.498 30.5s-30.167 48.833 -31.5 85.5h52c3.33301 -44 23.666 -66 60.999 -66c38 0 58.333 22 61 66h52c-1.33301 -36.667 -11.833 -65.167 -31.5 -85.5s-46.834 -30.5 -81.501 -30.5zM337.003 525h58.999v-525h-49l-10 65
c-29.333 -51.333 -74.666 -77 -135.999 -77c-94 0 -141 67 -141 201v336h59v-327c0 -53.333 7.66699 -92.333 23 -117s40 -37 74 -37c36.667 0 66 14.5 88 43.5s33 68.833 33 119.5v318z" />
    <glyph glyph-name="uni045D.loclBGR" horiz-adv-x="468" 
d="M285 610h-58l-87 113h70zM343 525h58.999v-525h-49l-10 65c-29.333 -51.333 -74.666 -77 -135.999 -77c-94 0 -141 67 -141 201v336h59v-327c0 -53.333 7.66699 -92.333 23 -117s40 -37 74 -37c36.667 0 66 14.5 88 43.5s33 68.833 33 119.5v318z" />
    <glyph glyph-name="uni043A.loclBGR" horiz-adv-x="425" 
d="M354 0l-177 267l-52 -57v-210h-59v724h59v-433l199 234h75l-182 -212l208 -313h-71z" />
    <glyph glyph-name="uni043B.loclBGR" horiz-adv-x="378" 
d="M308 0l-83.002 307c-3.33301 12.667 -7.16602 28.167 -11.499 46.5l-13.5 57l-9 37.5h-4l-9 -37.5l-13.5 -57c-4.33301 -18.333 -8.16602 -33.833 -11.499 -46.5l-83 -307h-62l149 525h64l149 -525h-62z" />
    <glyph glyph-name="uni043F.loclBGR" 
d="M261 537c94 0 141.001 -67 141.001 -201v-336h-59v327c0 53.333 -7.66699 92.333 -23 117s-40 37 -74 37c-36.667 0 -66 -14.5 -88 -43.5s-33 -68.833 -33 -119.5v-318h-59v525h49l10 -65c29.333 51.333 74.666 77 135.999 77z" />
    <glyph glyph-name="uni0442.loclBGR" horiz-adv-x="723" 
d="M527 537c42 0 75.165 -17 99.498 -51s36.5 -84.667 36.5 -152v-334h-59v329c0 101.333 -30 152 -90 152c-36 0 -65 -14.5 -87 -43.5s-33 -68.833 -33 -119.5v-318h-59v329c0 101.333 -31 152 -93 152c-35.333 0 -63.666 -14.5 -84.999 -43.5s-32 -68.833 -32 -119.5v-318
h-59v525h49l9 -68c28 53.333 71.667 80 131 80c62.667 0 104.667 -33.667 126 -101c26.667 67.333 75.334 101 146.001 101z" />
    <glyph glyph-name="uni0446.loclBGR" horiz-adv-x="475" 
d="M395 -115l-0.000976562 114.999c-29.333 11.333 -47.666 35.333 -54.999 72c-29.333 -56 -76.333 -84 -141 -84c-46 0 -80.667 16 -104 48s-35 83 -35 153v336h59v-327c0 -53.333 7.33301 -92.333 22 -117s39 -37 73 -37c36.667 0 66 14.5 88 43.5s33 68.833 33 119.5
v318h59v-390c0 -35.333 4.16699 -58.166 12.5 -68.499s23.5 -15.5 45.5 -15.5v-166h-57z" />
    <glyph glyph-name="uni0448.loclBGR" horiz-adv-x="723" 
d="M598 525h59.002v-525h-49l-9 68c-28 -53.333 -71.667 -80 -131 -80c-62.667 0 -104.667 33.667 -126 101c-26.667 -67.333 -75.334 -101 -146.001 -101c-42 0 -75.167 17 -99.5 51s-36.5 84.667 -36.5 152v334h59v-329c0 -101.333 30 -152 90 -152c36 0 65 14.5 87 43.5
s33 68.833 33 119.5v318h59v-329c0 -101.333 31 -152 93 -152c35.333 0 63.666 14.5 84.999 43.5s32 68.833 32 119.5v318z" />
    <glyph glyph-name="uni0449.loclBGR" horiz-adv-x="734" 
d="M653 135c0 -35.333 4.16699 -58.167 12.5 -68.5s23.5 -15.5 45.5 -15.5v-166h-57v115c-29.333 11.333 -48 36 -56 74c-26.667 -57.333 -71 -86 -133 -86c-60.667 0 -101.667 32.333 -123 97c-26 -64.667 -74.333 -97 -145 -97c-42.667 0 -76.167 17 -100.5 51
s-36.5 84.667 -36.5 152v334h59v-329c0 -101.333 30.333 -152 91 -152c36 0 64.5 14.5 85.5 43.5s31.5 68.833 31.5 119.5v318h59v-329c0 -101.333 30.667 -152 92 -152c35.333 0 63.5 14.5 84.5 43.5s31.5 68.833 31.5 119.5v318h59v-390z" />
    <glyph glyph-name="uni044C.loclBGR" horiz-adv-x="409" 
d="M234 361c48 1.33301 86.833 -14.8301 116.5 -48.4971s44.5 -78.834 44.5 -135.501c0 -58.667 -15.333 -104.834 -46 -138.501s-71.667 -50.5 -123 -50.5c-50.667 0 -91 15.667 -121 47s-45 73 -45 125v365h59v-216c28 33.333 66.333 50.666 115 51.999zM226 46.0039
c34.667 0 61.5 11 80.5 33s28.5 54.667 28.5 98c0 84.667 -36.333 127 -109 127c-33.333 0 -59.5 -11.167 -78.5 -33.5s-28.5 -54.5 -28.5 -96.5s9.33301 -73.833 28 -95.5s45 -32.5 79 -32.5z" />
    <glyph glyph-name="uni044A.loclBGR" 
d="M287 361c48 1.33301 86.833 -14.8301 116.5 -48.4971s44.5 -78.834 44.5 -135.501c0 -58.667 -15.333 -104.834 -46 -138.501s-71.667 -50.5 -123 -50.5c-50.667 0 -91 15.667 -121 47s-45 73 -45 125v310h-106v55h165v-216c28 33.333 66.333 50.666 115 51.999z
M279 46.0039c34.667 0 61.5 11 80.5 33s28.5 54.667 28.5 98c0 84.667 -36.333 127 -109 127c-33.333 0 -59.5 -11.167 -78.5 -33.5s-28.5 -54.5 -28.5 -96.5s9.33301 -73.833 28 -95.5s45 -32.5 79 -32.5z" />
    <glyph glyph-name="uni044E.loclBGR" horiz-adv-x="614" 
d="M392 532c52 0 93.167 -16.5 123.5 -49.5s45.5 -79.5 45.5 -139.5v-164c0 -60 -15.167 -106.5 -45.5 -139.5s-71.5 -49.5 -123.5 -49.5s-93.167 16.5 -123.5 49.5s-45.5 79.5 -45.5 139.5v62h-95v-241h-59v720h59v-422h95v45c0 60 15.167 106.5 45.5 139.5
s71.5 49.5 123.5 49.5zM501 179v164c0 87.333 -36.333 131 -109 131s-109 -43.667 -109 -131v-164c0 -87.333 36.333 -131 109 -131s109 43.667 109 131z" />
    </font>
</defs>
</svg>
